<svg width="28" height="24" viewBox="0 0 28 24" fill="none" xmlns="http://www.w3.org/2000/svg">
<g clip-path="url(#clip0)">
<path d="M27.8291 11.6465L19.0791 4.14653C18.8512 3.9512 18.4821 3.9512 18.2542 4.14653C18.0264 4.34185 18.0264 4.65826 18.2542 4.85354L26.0085 11.5L0.583352 11.5C0.260914 11.5 0 11.7237 0 12.0001C0 12.2764 0.260914 12.5001 0.583352 12.5001L26.0085 12.5001L18.2542 19.1465C18.0264 19.3419 18.0264 19.6583 18.2542 19.8535C18.3682 19.9512 18.5175 20 18.6667 20C18.8159 20 18.9652 19.9512 19.0792 19.8535L27.8292 12.3535C28.057 12.1583 28.057 11.8419 27.8291 11.6465Z" fill="white"/>
</g>
<defs>
<clipPath id="clip0">
<rect width="28" height="24" fill="white"/>
</clipPath>
</defs>
</svg>
