<?xml version="1.0" encoding="utf-8"?>
<!-- Generator: Adobe Illustrator 21.1.0, SVG Export Plug-In . SVG Version: 6.00 Build 0)  -->
<svg version="1.1" id="Layer_1" xmlns="http://www.w3.org/2000/svg" xmlns:xlink="http://www.w3.org/1999/xlink" x="0px" y="0px"
	 viewBox="0 0 25 25" style="enable-background:new 0 0 25 25;" xml:space="preserve">
<path d="M16.1,23.8c-0.3,0-0.6,0.3-0.6,0.6c0,0.3,0.3,0.6,0.6,0.6h7.1c0.3,0,0.6-0.3,0.6-0.6V0.6c0-0.3-0.3-0.6-0.6-0.6H1.8
	C1.5,0,1.2,0.3,1.2,0.6v23.8c0,0.3,0.3,0.6,0.6,0.6h11.9c0.3,0,0.6-0.3,0.6-0.6c0-2.8,2.1-5,4.8-5.3V22c0,0.3,0.3,0.6,0.6,0.6
	s0.6-0.3,0.6-0.6v-3.6c0-0.3-0.3-0.6-0.6-0.6c-3.4,0-6.2,2.6-6.5,6H2.4v-9.5h11.3c0.3,0,0.6-0.3,0.6-0.6v-2.4c0-0.3-0.3-0.6-0.6-0.6
	s-0.6,0.3-0.6,0.6v1.8H2.4V1.2h10.7v4.2c0,0.3,0.3,0.6,0.6,0.6s0.6-0.3,0.6-0.6V1.2h8.3v11.9h-3c-0.3,0-0.6,0.3-0.6,0.6
	c0,0.3,0.3,0.6,0.6,0.6h3v9.5L16.1,23.8L16.1,23.8z"/>
</svg>
