<svg width="25" height="25" viewBox="0 0 25 25" fill="none" xmlns="http://www.w3.org/2000/svg">
<g clip-path="url(#clip0)">
<path d="M0.833321 16.25H9.16672C9.62677 16.2495 9.99947 15.8768 10 15.4167V9.58329C9.99947 9.12324 9.62677 8.75054 9.16672 8.74997H0.833321C0.373268 8.75054 0.000572207 9.12324 0 9.58329V15.4167C0.000572207 15.8768 0.373268 16.2495 0.833321 16.25ZM0.833321 9.58329H9.16672L9.1671 15.4167H0.833321V9.58329Z" fill="#808080"/>
<path d="M0.833321 25H4.1666C4.62666 24.9994 4.99954 24.6267 4.99992 24.1667V18.3333C4.99954 17.8734 4.62666 17.5005 4.1666 17.4999H0.833321C0.373268 17.5005 0.000572207 17.8734 0 18.3333V24.1667C0.000572207 24.6267 0.373268 24.9994 0.833321 25ZM0.833321 18.3333H4.1666L4.16718 24.1667H0.833321V18.3333Z" fill="#808080"/>
<path d="M24.1667 0H0.833321C0.373268 0.000572207 0.000572207 0.373268 0 0.833321V6.66676C0.000572207 7.12662 0.373268 7.4995 0.833321 7.50008H12.3062C12.5412 7.89948 12.7428 8.31757 12.9093 8.74996H12.0832C11.6234 8.75053 11.2505 9.12323 11.2499 9.58328V15.4167C11.2505 15.8768 11.6234 16.2495 12.0832 16.25H12.8853C12.8796 16.4383 12.8685 16.6275 12.8706 16.8135C12.8735 17.034 12.8841 17.2649 12.8984 17.4999H7.08332C6.62327 17.5005 6.25057 17.8734 6.25 18.3332V24.1667C6.25057 24.6267 6.62327 24.9994 7.08332 25H24.1667C24.6267 24.9994 24.9994 24.6267 25 24.1667V0.833321C24.9994 0.373268 24.6267 0.000572207 24.1667 0V0ZM0.833321 0.833321H7.80945C7.78275 1.41716 7.80163 2.00214 7.86629 2.58293C8.09689 3.77922 9.03072 4.38328 9.8547 4.91638L9.98859 5.00298C10.6684 5.45177 11.2654 6.01463 11.7535 6.66676H0.833321V0.833321ZM12.0832 9.58328H13.1765C13.3669 10.2785 13.4701 10.9947 13.4834 11.7153C13.4714 12.359 13.3827 12.999 13.2195 13.6217C13.1575 13.9027 13.0953 14.1859 13.044 14.4777C12.9898 14.7829 12.9543 15.0988 12.9276 15.4167H12.0832V9.58328ZM7.08332 18.3332H12.9814C13.2034 20.4573 14.0131 22.4773 15.3196 24.1667H7.08332V18.3332ZM24.1667 24.1667H16.4249C14.8596 22.4274 13.9215 20.2137 13.7609 17.8791C13.7272 17.5055 13.7081 17.1432 13.7041 16.8028C13.6999 16.4919 13.7085 16.1745 13.7291 15.8533C13.7484 15.4406 13.7938 15.0295 13.8645 14.6225C13.9143 14.3423 13.974 14.0703 14.0335 13.8006C14.2115 13.1149 14.3066 12.4105 14.3171 11.7022C14.3021 10.7998 14.1594 9.9041 13.8933 9.0416C13.656 8.27675 13.3226 7.54528 12.9007 6.86455C12.2812 5.83992 11.442 4.96559 10.4435 4.3047L10.3071 4.21638C9.52435 3.70979 8.84762 3.27244 8.68607 2.43664C8.63705 1.90372 8.62122 1.36814 8.63857 0.833321H24.1667V24.1667Z" fill="#808080"/>
<path d="M9.52197 2.34566C9.6469 2.77863 10.0738 3.07274 10.7602 3.51639L10.901 3.60775C11.9998 4.33331 12.9239 5.29404 13.606 6.42052C14.0678 7.16534 14.4326 7.96585 14.6922 8.80299C14.7613 9.02252 14.9951 9.1444 15.2147 9.07555C15.4342 9.0065 15.5563 8.77247 15.4872 8.55293C15.2068 7.64923 14.8126 6.78482 14.3142 5.98049C13.5677 4.75025 12.5571 3.7014 11.3557 2.90947L11.213 2.81697C10.8882 2.63539 10.5918 2.40727 10.3332 2.13986L10.3267 2.05574C10.3114 1.82591 10.1129 1.65215 9.88322 1.66741C9.65357 1.68286 9.47981 1.88141 9.49507 2.11106C9.49927 2.17076 9.50328 2.22492 9.50747 2.27051C9.51014 2.29588 9.51491 2.32105 9.52197 2.34566Z" fill="#808080"/>
<path d="M15.1494 11.6875C15.1399 12.4697 15.0365 13.2479 14.8414 14.0055C14.7861 14.2559 14.7308 14.5079 14.6852 14.7669C14.6192 15.1459 14.5774 15.5285 14.5599 15.9128C14.5412 16.2056 14.5334 16.502 14.537 16.7929C14.5408 17.1118 14.5587 17.4494 14.5904 17.799C14.7279 19.7603 15.4502 21.6352 16.6639 23.1821C16.7572 23.3019 16.9082 23.3614 17.0581 23.3377C17.2081 23.3139 17.3332 23.2105 17.3847 23.0679C17.4364 22.925 17.4062 22.7655 17.3061 22.6515C16.2063 21.2297 15.5502 19.515 15.4201 17.7223C15.3909 17.3962 15.3743 17.0801 15.3705 16.7826C15.3667 16.5125 15.3739 16.2384 15.3921 15.9597C15.4077 15.6084 15.4457 15.2586 15.5056 14.912C15.5494 14.665 15.6028 14.4239 15.661 14.1586C15.8685 13.3465 15.9765 12.512 15.9828 11.6737C15.9791 11.4464 15.7936 11.2638 15.5662 11.264H15.5593C15.4487 11.2658 15.3434 11.3113 15.2667 11.3909C15.1899 11.4702 15.1477 11.577 15.1494 11.6875Z" fill="#808080"/>
</g>
<defs>
<clipPath id="clip0">
<rect width="25" height="25" fill="white"/>
</clipPath>
</defs>
</svg>
