<svg width="25" height="25" viewBox="0 0 25 25" fill="none" xmlns="http://www.w3.org/2000/svg">
<g clip-path="url(#clip0)">
<path d="M0.59082 14.7637V10.433C0.59082 9.84247 1.08295 9.35034 1.6735 9.35034H8.46484C9.05539 9.35034 9.54751 9.84247 9.54751 10.433V14.7637C9.54751 15.3543 9.05539 15.8464 8.46484 15.8464H1.6735C1.08295 15.8464 0.59082 15.3543 0.59082 14.7637Z" stroke="#808080" stroke-width="1.2" stroke-miterlimit="10" stroke-linecap="round" stroke-linejoin="round"/>
<path d="M14.1728 15.8464H12.8932C12.3027 15.8464 11.8105 15.3543 11.8105 14.7637V10.433C11.8105 9.84247 12.3027 9.35034 12.8932 9.35034H14.2712" stroke="#808080" stroke-width="1.2" stroke-miterlimit="10" stroke-linecap="round" stroke-linejoin="round"/>
<path d="M1.6735 24.4094C1.08295 24.4094 0.59082 23.9173 0.59082 23.3267V19.0944C0.59082 18.5039 1.08295 18.0117 1.6735 18.0117H3.44515C4.0357 18.0117 4.52783 18.5039 4.52783 19.0944V23.3267C4.52783 23.9173 4.0357 24.4094 3.44515 24.4094H1.6735Z" stroke="#808080" stroke-width="1.2" stroke-miterlimit="10" stroke-linecap="round" stroke-linejoin="round"/>
<path d="M13.3861 7.08655H1.6735C1.08295 7.08655 0.59082 6.59442 0.59082 6.00387V1.67316C0.59082 1.08261 1.08295 0.590485 1.6735 0.590485H23.4255C24.016 0.590485 24.5081 1.08261 24.5081 1.67316V23.4251C24.5081 24.0157 24.016 24.5078 23.4255 24.5078H7.67744C7.08688 24.5078 6.59476 24.0157 6.59476 23.4251V19.1928C6.59476 18.6023 7.08688 18.1102 7.67744 18.1102H14.1735" stroke="#808080" stroke-width="1.2" stroke-miterlimit="10" stroke-linecap="round" stroke-linejoin="round"/>
<path d="M9.05507 0.590485C9.05507 0.590485 8.85822 2.26371 9.25192 3.24796C9.64562 4.23222 12.6968 5.31489 13.7795 7.87395C14.8622 10.433 14.8622 12.4999 14.2716 15.1574C13.6811 17.8149 14.4685 21.6535 16.9291 24.4094" stroke="#808080" stroke-width="1.2" stroke-miterlimit="10" stroke-linecap="round" stroke-linejoin="round"/>
</g>
<defs>
<clipPath id="clip0">
<rect width="25" height="25" fill="white"/>
</clipPath>
</defs>
</svg>
