<svg width="20" height="20" viewBox="0 0 20 20" fill="none" xmlns="http://www.w3.org/2000/svg">
<g clip-path="url(#clip0)">
<path d="M19.3346 4.58176C18.9354 4.16351 18.384 3.91636 17.7567 3.91636H14.6008V3.87834C14.6008 3.40305 14.4106 2.94678 14.0875 2.6426C13.7643 2.3194 13.327 2.12929 12.8517 2.12929H7.14829C6.65399 2.12929 6.21673 2.3194 5.89354 2.6426C5.57034 2.96579 5.38023 3.40305 5.38023 3.87834V3.91636H2.24335C1.61597 3.91636 1.06464 4.16351 0.665399 4.58176C0.26616 4.981 0 5.55134 0 6.15971V15.6274C0 16.2548 0.247148 16.8061 0.665399 17.2053C1.06464 17.6046 1.63498 17.8707 2.24335 17.8707H17.7567C18.384 17.8707 18.9354 17.6236 19.3346 17.2053C19.7338 16.8061 20 16.2358 20 15.6274V6.15971C20 5.53233 19.7529 4.981 19.3346 4.58176ZM19.0114 15.6274H18.9924C18.9924 15.9696 18.8593 16.2738 18.6312 16.5019C18.403 16.7301 18.0989 16.8631 17.7567 16.8631H2.24335C1.90114 16.8631 1.59696 16.7301 1.36882 16.5019C1.14068 16.2738 1.0076 15.9696 1.0076 15.6274V6.15971C1.0076 5.8175 1.14068 5.51332 1.36882 5.28518C1.59696 5.05704 1.90114 4.92396 2.24335 4.92396H5.91255C6.19772 4.92396 6.42586 4.69583 6.42586 4.41066V3.85933C6.42586 3.6502 6.5019 3.46009 6.63498 3.32701C6.76806 3.19393 6.95818 3.11788 7.1673 3.11788H12.8517C13.0608 3.11788 13.251 3.19393 13.384 3.32701C13.5171 3.46009 13.5932 3.6502 13.5932 3.85933V4.41066C13.5932 4.69583 13.8213 4.92396 14.1065 4.92396H17.7757C18.1179 4.92396 18.4221 5.05704 18.6502 5.28518C18.8783 5.51332 19.0114 5.8175 19.0114 6.15971V15.6274Z" fill="white"/>
<path d="M9.99907 6.21674C8.7063 6.21674 7.52759 6.74905 6.69109 7.58556C5.83557 8.44107 5.32227 9.60076 5.32227 10.8935C5.32227 12.1863 5.85459 13.365 6.69109 14.2015C7.5466 15.057 8.7063 15.5703 9.99907 15.5703C11.2919 15.5703 12.4706 15.038 13.3071 14.2015C14.1626 13.346 14.6759 12.1863 14.6759 10.8935C14.6759 9.60076 14.1436 8.42206 13.3071 7.58556C12.4706 6.74905 11.2919 6.21674 9.99907 6.21674ZM12.5846 13.4981C11.9192 14.1445 11.0067 14.5627 9.99907 14.5627C8.99147 14.5627 8.07892 14.1445 7.41352 13.4981C6.74812 12.8327 6.34888 11.9201 6.34888 10.9125C6.34888 9.90494 6.76713 8.9924 7.41352 8.327C8.07892 7.6616 8.99147 7.26236 9.99907 7.26236C11.0067 7.26236 11.9192 7.68061 12.5846 8.327C13.25 8.9924 13.6493 9.90494 13.6493 10.9125C13.6683 11.9201 13.25 12.8327 12.5846 13.4981Z" fill="white"/>
<path d="M16.7694 8.06086C17.2839 8.06086 17.701 7.64378 17.701 7.1293C17.701 6.61481 17.2839 6.19774 16.7694 6.19774C16.255 6.19774 15.8379 6.61481 15.8379 7.1293C15.8379 7.64378 16.255 8.06086 16.7694 8.06086Z" fill="white"/>
</g>
<defs>
<clipPath id="clip0">
<rect width="20" height="20" fill="white"/>
</clipPath>
</defs>
</svg>
