<svg width="40" height="40" viewBox="0 0 40 40" fill="none" xmlns="http://www.w3.org/2000/svg">
<g clip-path="url(#clip0)">
<path d="M35.7493 17.0281H34.4382L22.9093 6.24164C23.1151 5.81554 23.2221 5.34819 23.2214 4.87489C23.2204 3.12049 21.797 1.69922 20.0426 1.70026C18.2882 1.70131 16.8669 3.12469 16.868 4.87909C16.8673 5.35098 16.9742 5.81659 17.1801 6.24094L5.6512 17.0281H4.34003C1.97147 17.0281 0 18.9776 0 21.3458V33.9632C0 36.3318 1.97147 38.2361 4.34003 38.2361H35.7493C36.8812 38.2382 37.9669 37.788 38.7653 36.9854C39.5633 36.1832 40.0079 35.095 39.9999 33.9632V21.3458C39.9999 18.9776 38.1179 17.0281 35.7493 17.0281ZM20.0447 3.13552C21.0084 3.13552 21.7896 3.91677 21.7896 4.88049C21.7896 5.8442 21.0084 6.62545 20.0447 6.62545C19.081 6.62545 18.2997 5.8442 18.2997 4.88049C18.3008 3.91712 19.0813 3.13657 20.0447 3.13552ZM18.0788 7.36196C19.2278 8.28267 20.8626 8.28163 22.0106 7.35916L32.3436 17.0281H7.74571L18.0788 7.36196ZM38.5681 33.9408C38.5681 35.5222 37.2859 36.8044 35.7046 36.8044H4.29529C2.71392 36.8044 1.43176 35.5222 1.43176 33.9408V21.3234C1.43176 19.742 2.71392 18.4599 4.29529 18.4599H35.7046C37.2859 18.4599 38.5681 19.742 38.5681 21.3234V33.9408Z" fill="black"/>
<path d="M20.5238 19.476C20.2547 19.2425 19.8551 19.2422 19.586 19.4753L11.9318 26.1039C11.7064 26.2909 11.6253 26.6006 11.7295 26.8743C11.8364 27.1498 12.1056 27.328 12.4006 27.3189H13.4227V35.05C13.4192 35.4453 13.7324 35.7715 14.1281 35.7837L25.8164 35.9095H25.8231C26.2327 35.8959 26.562 35.5677 26.577 35.158V27.3189H27.689C27.9847 27.3287 28.2538 27.1501 28.3598 26.8736C28.4657 26.5975 28.3846 26.2843 28.1581 26.0938L20.5238 19.476ZM20.0537 20.9221L25.7724 25.8872H14.3207L20.0537 20.9221ZM21.2974 34.4002L18.8813 34.3778V31.5248H21.2974V34.4002ZM25.1453 34.4358L22.7292 34.4135V30.8358C22.7267 30.4335 22.4065 30.1052 22.0042 30.093H18.1476C17.7522 30.093 17.4495 30.4404 17.4495 30.8358V34.3642L14.8545 34.3404V27.3189H25.1453V34.4358Z" fill="black"/>
</g>
<defs>
<clipPath id="clip0">
<rect width="40" height="40" fill="white"/>
</clipPath>
</defs>
</svg>
