<svg width="45" height="45" viewBox="0 0 45 45" fill="none" xmlns="http://www.w3.org/2000/svg">
<g clip-path="url(#clip0)">
<path d="M23.0004 5.7C22.0004 6.3 20.9004 5.9 20.4004 5.8C20.8004 6.6 21.5004 7.1 22.5004 7.1C23.7004 7.1 24.8004 6.1 24.8004 4.8C24.8004 4.3 24.6004 3.8 24.3004 3.4C24.0004 3.7 23.9004 5.2 23.0004 5.7Z" fill="#EE7562"/>
<path d="M23.7 36.2H21V40.1H23.7V36.2Z" fill="#EE7562"/>
<path d="M15.0008 25.1L13.8008 29.2V29.9C13.8008 30.8 14.6008 31.5 15.5008 31.5C16.4008 31.5 17.2008 30.8 17.2008 29.9V29.8V29.1V29C17.2008 28.7 17.5008 28.4 17.8008 28.4C18.1008 28.4 18.4008 28.7 18.4008 29V29.1V29.8C18.4008 30.7 19.2008 31.4 20.1008 31.4C21.0008 31.4 21.8008 30.7 21.8008 29.8V29C21.8008 28.7 22.1008 28.4 22.4008 28.4C22.7008 28.4 23.0008 28.7 23.0008 29V29.8C23.0008 30.7 23.8008 31.4 24.7008 31.4C25.6008 31.4 26.4008 30.7 26.4008 29.8V29.1V29C26.4008 28.7 26.7008 28.4 27.0008 28.4C27.3008 28.4 27.6008 28.7 27.6008 29V29.1V29.8V29.9C27.6008 30.8 28.4008 31.5 29.3008 31.5C30.2008 31.5 31.0008 30.8 31.0008 29.9V29.2L29.8008 25.1H15.0008Z" fill="#EE7562"/>
<path d="M5.09961 21.7C3.99961 21.7 3.09961 22.6 3.09961 23.7V41C3.09961 41.5 3.29961 42 3.69961 42.4H42.4996C43.2996 42.4 43.8996 41.8 43.8996 41V22.3C43.4996 21.9 42.9996 21.7 42.4996 21.7H5.09961ZM32.3996 29.9C32.3996 30.9 31.8996 31.8 31.0996 32.3V40.7C31.0996 41 30.7996 41.3 30.4996 41.3H14.2996C13.9996 41.3 13.6996 41 13.6996 40.7V32.1C12.9996 31.6 12.5996 30.8 12.5996 29.9V29.1C12.5996 29 12.5996 29 12.5996 28.9L13.8996 24.3C13.9996 24 14.1996 23.9 14.4996 23.9H30.3996C30.6996 23.9 30.8996 24.1 30.9996 24.3L32.2996 28.9C32.2996 29 32.2996 29 32.2996 29.1V29.9H32.3996Z" fill="#EE7562"/>
<path d="M27.2008 31.5C26.7008 32.2 25.8008 32.6 24.9008 32.6C23.9008 32.6 23.1008 32.1 22.5008 31.4C22.0008 32.1 21.1008 32.6 20.1008 32.6C19.2008 32.6 18.4008 32.2 17.8008 31.5C17.3008 32.2 16.4008 32.7 15.4008 32.7C15.2008 32.7 15.0008 32.7 14.8008 32.6V40H19.7008V35.5C19.7008 35.2 20.0008 34.9 20.3008 34.9H24.2008C24.5008 34.9 24.8008 35.2 24.8008 35.5V40H29.8008V32.6C29.7008 32.6 29.6008 32.6 29.4008 32.6C28.6008 32.7 27.7008 32.2 27.2008 31.5Z" fill="#EE7562"/>
<path d="M42.5 18.7H38.8L25.5 6.4C25.8 5.9 25.9 5.4 25.9 4.8C25.9 2.9 24.3 1.3 22.4 1.3C20.5 1.3 19 2.9 19 4.8C19 5.4 19.2 6 19.5 6.5L6.3 18.7H2.6C1.2 18.7 0 19.9 0 21.3V41C0 42.4 1.2 43.6 2.6 43.6H42.4C43.8 43.6 45 42.4 45 41V21.3C45.1 19.9 43.9 18.7 42.5 18.7ZM22.5 2.6C23.2 2.6 23.8 2.9 24.3 3.5C24.6 3.9 24.8 4.4 24.8 4.9C24.8 6.1 23.8 7.2 22.5 7.2C21.6 7.2 20.8 6.6 20.4 5.9C20.3 5.6 20.2 5.3 20.2 5C20.2 3.6 21.2 2.6 22.5 2.6ZM20.2 7.5C20.8 8 21.6 8.3 22.4 8.3C23.3 8.3 24.1 8 24.7 7.4L37 18.7H8.1L20.2 7.5ZM1.2 41V21.3C1.2 20.5 1.8 19.9 2.6 19.9H42.4C43.2 19.9 43.8 20.5 43.8 21.3V22.3V41C43.8 41.8 43.2 42.4 42.4 42.4H3.7H2.7C1.9 42.4 1.2 41.8 1.2 41Z" fill="#010202"/>
<path d="M31.0992 24.4C30.9992 24.1 30.7992 24 30.4992 24H14.5992C14.2992 24 14.0992 24.2 13.9992 24.4L12.6992 29C12.6992 29.1 12.6992 29.1 12.6992 29.2V30C12.6992 30.9 13.0992 31.7 13.7992 32.2V40.8C13.7992 41.1 14.0992 41.4 14.3992 41.4H30.5992C30.8992 41.4 31.1992 41.1 31.1992 40.8V32.4C31.9992 31.9 32.4992 31 32.4992 30V29.2C32.4992 29.1 32.4992 29.1 32.4992 29L31.0992 24.4ZM23.6992 40.1H20.9992V36.2H23.6992V40.1ZM29.8992 40.1H24.8992V35.6C24.8992 35.3 24.5992 35 24.2992 35H20.3992C20.0992 35 19.7992 35.3 19.7992 35.6V40.1H14.8992V32.7C15.0992 32.7 15.2992 32.8 15.4992 32.8C16.4992 32.8 17.2992 32.3 17.8992 31.6C18.3992 32.3 19.2992 32.7 20.1992 32.7C21.1992 32.7 21.9992 32.2 22.5992 31.5C23.0992 32.2 23.9992 32.7 24.9992 32.7C25.8992 32.7 26.6992 32.3 27.2992 31.6C27.7992 32.3 28.6992 32.8 29.6992 32.8C29.7992 32.8 29.9992 32.8 30.0992 32.8V40.1H29.8992ZM31.1992 29.9C31.1992 30.8 30.3992 31.5 29.4992 31.5C28.5992 31.5 27.7992 30.8 27.7992 29.9V29.8V29.1V29C27.7992 28.7 27.4992 28.4 27.1992 28.4C26.8992 28.4 26.5992 28.7 26.5992 29V29.1V29.8C26.5992 30.7 25.7992 31.4 24.8992 31.4C23.9992 31.4 23.1992 30.7 23.1992 29.8V29C23.1992 28.7 22.8992 28.4 22.5992 28.4C22.2992 28.4 21.9992 28.7 21.9992 29V29.8C21.9992 30.7 21.1992 31.4 20.2992 31.4C19.3992 31.4 18.5992 30.7 18.5992 29.8V29.1V29C18.5992 28.7 18.2992 28.4 17.9992 28.4C17.6992 28.4 17.3992 28.7 17.3992 29V29.1V29.8V29.9C17.3992 30.8 16.5992 31.5 15.6992 31.5C14.7992 31.5 13.9992 30.8 13.9992 29.9V29.2L15.1992 25.1H30.1992L31.3992 29.2V29.9H31.1992Z" fill="white"/>
</g>
<defs>
<clipPath id="clip0">
<rect width="45" height="45" fill="white"/>
</clipPath>
</defs>
</svg>
