<svg width="20" height="20" viewBox="0 0 20 20" fill="none" xmlns="http://www.w3.org/2000/svg">
<path d="M18.9664 0.478885H15.8512C15.6354 0.478885 15.4605 0.653813 15.4605 0.869524V0.979099C14.7432 0.922378 14.0189 0.72237 13.2588 0.511933C12.3498 0.260244 11.4099 0 10.4579 0H6.07712C4.87867 0 3.90903 0.631742 3.48331 1.68987C3.24084 2.29255 3.23021 2.91409 3.43174 3.37727C3.13462 3.59076 2.88735 3.8871 2.70734 4.25508C2.38225 4.9196 2.34987 5.67197 2.59824 6.25136C2.17252 6.58509 1.90973 7.06471 1.78996 7.52668C1.64965 8.06784 1.68949 8.59481 1.87669 8.99729C1.156 9.28679 0.644531 9.97756 0.644531 10.7706C0.644531 11.3153 0.855672 11.8163 1.23905 12.1812C1.60922 12.5336 2.10365 12.7277 2.63128 12.7276L8.97566 12.7274C9.61881 13.427 9.83339 14.4498 9.49396 15.2668C8.98492 16.4919 9.01355 17.4812 9.58971 18.5749C10.0057 19.3644 11.008 20 11.7856 20C11.848 20 11.909 19.9959 11.9682 19.9875C12.4473 19.919 12.7813 19.5889 12.8846 19.0817C12.9187 18.9148 12.9288 18.7181 12.9407 18.4903C12.9734 17.8582 13.0182 16.9925 13.5718 15.9319C13.895 15.3127 14.0066 14.6534 14.1051 14.0716C14.2862 13.0014 14.394 12.366 15.4605 12.2494V12.3556C15.4605 12.5713 15.6354 12.7463 15.8512 12.7463H18.9664C19.1822 12.7463 19.3571 12.5713 19.3571 12.3556V0.869524C19.3571 0.653774 19.1822 0.478885 18.9664 0.478885ZM18.5758 11.965H16.2418V8.37058C16.2418 8.15487 16.0669 7.97994 15.8512 7.97994C15.6354 7.97994 15.4605 8.15487 15.4605 8.37058V11.4654C13.7273 11.6226 13.5195 12.8501 13.3348 13.9412C13.2416 14.4916 13.1453 15.0606 12.8792 15.5704C12.2468 16.7819 12.1948 17.7857 12.1604 18.4499C12.1502 18.6464 12.1414 18.816 12.1191 18.9257C12.0705 19.1642 11.9587 19.1996 11.8576 19.214C11.4274 19.2754 10.5995 18.8153 10.2809 18.2107C9.8126 17.3217 9.79424 16.5803 10.2155 15.5665C10.5884 14.6689 10.469 13.5926 9.94663 12.7274H10.4283C10.644 12.7274 10.8189 12.5525 10.8189 12.3367C10.8189 12.121 10.644 11.9461 10.4283 11.9461L2.63128 11.9463C2.30514 11.9463 2.002 11.8288 1.77778 11.6153C1.55081 11.3993 1.42585 11.0993 1.42585 10.7706C1.42585 10.1579 1.95294 9.64797 2.60085 9.63391L4.55405 9.59141C4.76976 9.58672 4.94078 9.40804 4.9361 9.19233C4.93149 8.97955 4.75754 8.81021 4.54573 8.81021C4.54284 8.81021 4.53995 8.81025 4.53706 8.81029L2.71047 8.85005C2.49882 8.65649 2.42561 8.18796 2.54624 7.72279C2.6148 7.45836 2.91692 6.59563 3.92571 6.59563C4.14146 6.59563 4.31635 6.42071 4.31635 6.205C4.31635 5.98928 4.14146 5.81436 3.92571 5.81436C3.69761 5.81436 3.48866 5.84397 3.29822 5.89733C3.16228 5.53157 3.19822 5.02952 3.40913 4.59837C3.51737 4.37711 3.73476 4.04894 4.122 3.87889C4.13345 3.87471 4.14478 3.86995 4.15587 3.86464C4.30404 3.80467 4.47616 3.7678 4.67531 3.7678C4.89106 3.7678 5.06594 3.59287 5.06594 3.37716C5.06594 3.16145 4.89106 2.98652 4.67531 2.98652C4.49046 2.98652 4.31209 3.00808 4.14204 3.04996C4.0427 2.80542 4.03509 2.41161 4.20814 1.98144C4.3533 1.62061 4.82605 0.781279 6.07712 0.781279H10.4579C11.3037 0.781279 12.1521 1.01621 13.0503 1.26489C13.8347 1.48209 14.6422 1.70526 15.4605 1.76249V4.85487C15.4605 5.07058 15.6354 5.24551 15.8512 5.24551C16.0669 5.24551 16.2418 5.07058 16.2418 4.85487V1.26016H18.5758V11.965Z" fill="black"/>
<path d="M15.8516 6.22195C15.6358 6.22195 15.4609 6.39688 15.4609 6.61258V6.61285C15.4609 6.82856 15.6358 7.00332 15.8516 7.00332C16.0673 7.00332 16.2422 6.82832 16.2422 6.61258C16.2422 6.39684 16.0673 6.22195 15.8516 6.22195Z" fill="black"/>
</svg>
