<svg width="28" height="28" viewBox="0 0 28 28" fill="none" xmlns="http://www.w3.org/2000/svg">
<g clip-path="url(#clip0)">
<path d="M23.3336 -6.10352e-05C20.7605 -6.10352e-05 18.667 2.09343 18.667 4.66659C18.667 6.8986 21.9739 11.4161 22.7487 12.4442C22.7485 12.7764 22.7487 13.1025 22.7407 13.4018C22.7321 13.7236 22.9862 13.992 23.3086 14.0005C23.3137 14.0005 23.3189 14.0005 23.3246 14.0005C23.639 14.0005 23.8988 13.7493 23.9073 13.4326C23.9154 13.1254 23.9151 12.7902 23.9153 12.4486C24.685 11.4275 28.0003 6.90123 28.0003 4.66659C28.0003 2.09343 25.9068 -6.10352e-05 23.3336 -6.10352e-05ZM23.3336 5.83329C22.6905 5.83329 22.167 5.30977 22.167 4.66664C22.167 4.02352 22.6905 3.49999 23.3336 3.49999C23.9768 3.49999 24.5003 4.02346 24.5003 4.66659C24.5003 5.30977 23.9768 5.83329 23.3336 5.83329Z" fill="#F87866"/>
<path d="M17.8558 16.8124C16.8931 17.3587 16.3582 18.3071 16.0391 18.9725C15.8996 19.2631 16.022 19.6117 16.3126 19.7507C16.394 19.79 16.4801 19.8082 16.5643 19.8082C16.7819 19.8082 16.9905 19.6863 17.0907 19.4772C17.4957 18.6324 17.9093 18.1237 18.4322 17.8263C18.712 17.6674 18.8105 17.3113 18.651 17.0311C18.4927 16.7508 18.1377 16.6523 17.8558 16.8124Z" fill="#F87866"/>
<path d="M12.5468 25.2809C11.9623 25.7441 11.2981 26.0927 10.5154 26.3473C10.2089 26.447 10.0414 26.7763 10.1411 27.0828C10.2214 27.3289 10.4499 27.4855 10.696 27.4855C10.7558 27.4855 10.8167 27.4764 10.8765 27.4571C11.7806 27.1631 12.5861 26.7387 13.2714 26.1958C13.5238 25.9953 13.5665 25.6284 13.3666 25.376C13.1649 25.1243 12.7986 25.0793 12.5468 25.2809Z" fill="#F87866"/>
<path d="M15.8366 21.0239C15.5346 20.9065 15.1985 21.0564 15.0818 21.3572C14.8203 22.0328 14.4933 22.8206 14.0524 23.5424C13.8843 23.8175 13.9715 24.1764 14.2461 24.3445C14.3412 24.4026 14.446 24.4299 14.5497 24.4299C14.7463 24.4299 14.9382 24.3308 15.0482 24.1508C15.537 23.3499 15.8895 22.5022 16.1698 21.7788C16.286 21.4785 16.1368 21.1407 15.8366 21.0239Z" fill="#F87866"/>
<path d="M23.1171 15.3683C22.8522 15.1889 22.4882 15.2578 22.307 15.5244C22.115 15.8081 21.7219 16.1983 20.533 16.3048C20.2123 16.3339 19.9753 16.617 20.0044 16.9383C20.0317 17.2413 20.2863 17.4692 20.5849 17.4692C20.6025 17.4692 20.6202 17.4686 20.6379 17.4669C21.9008 17.3535 22.7627 16.932 23.2731 16.1783C23.4538 15.9117 23.3837 15.5489 23.1171 15.3683Z" fill="#F87866"/>
<path d="M8.38223 26.8409C10.2228 24.878 14 20.3624 14 16.3333C14 12.4083 10.925 9.33331 7 9.33331C3.07502 9.33331 0 12.4083 0 16.3333C0 21.5076 6.23809 27.4975 6.58673 27.8281C6.58673 27.8281 6.58815 27.8295 6.5888 27.8302C6.59072 27.832 6.59805 27.8391 6.59958 27.8405C6.6237 27.8634 6.65377 27.874 6.68052 27.892C6.7136 27.9143 6.74352 27.9406 6.78098 27.9558C6.85125 27.9844 6.9253 28 7 28C7.42498 28 7.82884 27.9851 8.21166 27.9561C8.53295 27.9316 8.7739 27.6519 8.7494 27.3306C8.7319 27.1007 8.58309 26.9214 8.38223 26.8409ZM7 19.8333C5.06997 19.8333 3.5 18.2633 3.5 16.3333C3.5 14.4033 5.06997 12.8333 7 12.8333C8.93003 12.8333 10.5 14.4033 10.5 16.3333C10.5 18.2633 8.93003 19.8333 7 19.8333Z" fill="#F87866"/>
</g>
<defs>
<clipPath id="clip0">
<rect width="28" height="28" fill="white"/>
</clipPath>
</defs>
</svg>
