<svg width="30" height="30" viewBox="0 0 30 30" fill="none" xmlns="http://www.w3.org/2000/svg">
<g clip-path="url(#clip0)">
<path d="M13.4984 24.3622C13.3687 24.1643 13.1184 24.0645 12.8879 24.1146C12.6446 24.1675 12.4591 24.3736 12.4297 24.6204C12.4008 24.8629 12.5335 25.1051 12.7526 25.2125C12.9697 25.3189 13.2358 25.2802 13.4125 25.1145C13.619 24.9209 13.6549 24.5973 13.4984 24.3622Z" fill="black"/>
<path d="M28.2606 24.9299H22.9739L20.2092 17.8052C20.1985 17.7778 20.1858 17.7512 20.1712 17.7257C19.7254 16.9483 18.8966 16.4654 18.0083 16.4654H17.3477V14.2071C17.3477 12.0149 15.7125 10.1975 13.5977 9.91061V8.01703C13.5977 8.00344 13.5972 7.9899 13.5963 7.97631C13.5888 7.86814 13.552 7.76801 13.4938 7.68393C13.4763 7.65856 13.4568 7.63471 13.4355 7.61238C13.4336 7.61033 13.4316 7.60834 13.4296 7.60629L7.96195 2.04299V0.585938C7.96195 0.262324 7.69957 0 7.37602 0C7.05246 0 6.79008 0.262324 6.79008 0.585938V2.04305L1.3224 7.60635C1.32041 7.60834 1.31848 7.61039 1.31654 7.61244C1.29527 7.63477 1.27576 7.65861 1.25824 7.68398C1.2 7.76813 1.1632 7.8682 1.15576 7.97637C1.15547 7.98047 1.15523 7.98457 1.155 7.98867C1.15453 7.99787 1.15436 8.00707 1.1543 8.01627V8.01709V29.4141C1.1543 29.7376 1.41668 30 1.74023 30H13.0117C13.3353 30 13.5977 29.7376 13.5977 29.4141V27.3253C13.5977 27.0018 13.3353 26.7394 13.0117 26.7394C12.6882 26.7394 12.4258 27.0018 12.4258 27.3253V28.8281H10.6584V26.2073C10.6584 24.3974 9.18586 22.925 7.3759 22.925C5.566 22.925 4.09354 24.3974 4.09354 26.2073V28.8281H2.32617V19.3015H12.4258V22.0276C12.4258 22.3512 12.6882 22.6136 13.0117 22.6136C13.3353 22.6136 13.5977 22.3512 13.5977 22.0276V21.5263H16.5066L19.2713 28.651C19.282 28.6785 19.2946 28.7051 19.3093 28.7306C19.7551 29.5079 20.5839 29.9908 21.4722 29.9908H28.2606C28.5841 29.9908 28.8465 29.7284 28.8465 29.4049V25.5158C28.8465 25.1922 28.5841 24.9299 28.2606 24.9299ZM5.26547 26.2073C5.26547 25.0436 6.21229 24.0969 7.37607 24.0969C8.53975 24.0969 9.48656 25.0436 9.48656 26.2073V28.8281H5.26547V26.2073ZM13.5979 11.0974C15.0635 11.373 16.1759 12.6626 16.1759 14.207V16.4654H13.5977L13.5979 11.0974ZM7.37602 3.11871L11.6143 7.43115H3.1377L7.37602 3.11871ZM5.26547 18.1296V15.5164C5.26547 14.3528 6.21229 13.406 7.37607 13.406C8.53975 13.406 9.48656 14.3527 9.48656 15.5164V18.1296H5.26547ZM10.6584 18.1296V15.5164C10.6584 13.7065 9.18586 12.2341 7.3759 12.2341C5.566 12.2341 4.09354 13.7065 4.09354 15.5164V18.1296H2.32617V8.60297H12.4258V18.1296H10.6584ZM27.6747 28.819H21.4721C21.0158 28.819 20.588 28.576 20.3463 28.1822L17.454 20.7285C17.3665 20.5031 17.1496 20.3545 16.9078 20.3545H13.5977V17.6373H18.0084C18.4647 17.6373 18.8924 17.8803 19.1341 18.2741L22.0265 25.7278C22.1139 25.9532 22.3309 26.1018 22.5727 26.1018H27.6746V28.819H27.6747Z" fill="black"/>
</g>
<defs>
<clipPath id="clip0">
<rect width="30" height="30" fill="white"/>
</clipPath>
</defs>
</svg>
