<svg width="20" height="20" viewBox="0 0 20 20" fill="none" xmlns="http://www.w3.org/2000/svg">
<path d="M9.99942 0C5.92554 0 2.61133 3.31421 2.61133 7.38809C2.61133 8.72925 3.21281 10.1717 3.23801 10.2325C3.43228 10.6936 3.81559 11.4098 4.09199 11.8296L9.15761 19.505C9.36492 19.8196 9.67174 20 9.99942 20C10.3271 20 10.6339 19.8196 10.8412 19.5054L15.9073 11.8296C16.1841 11.4098 16.567 10.6936 16.7613 10.2325C16.7865 10.1721 17.3875 8.72968 17.3875 7.38809C17.3875 3.31421 14.0733 0 9.99942 0ZM15.9599 9.89526C15.7865 10.3086 15.4297 10.9748 15.1815 11.3512L10.1155 19.0269C10.0155 19.1786 9.98378 19.1786 9.88382 19.0269L4.81776 11.3512C4.56961 10.9748 4.21281 10.3081 4.0394 9.89483C4.03201 9.87701 3.48052 8.54933 3.48052 7.38809C3.48052 3.79357 6.4049 0.869187 9.99942 0.869187C13.5939 0.869187 16.5183 3.79357 16.5183 7.38809C16.5183 8.55106 15.9655 9.88223 15.9599 9.89526Z" fill="#2D2D2D"/>
<path d="M9.99923 3.47719C7.84234 3.47719 6.08789 5.23208 6.08789 7.38854C6.08789 9.545 7.84234 11.2999 9.99923 11.2999C12.1561 11.2999 13.9106 9.545 13.9106 7.38854C13.9106 5.23208 12.1561 3.47719 9.99923 3.47719ZM9.99923 10.4307C8.32213 10.4307 6.95708 9.06607 6.95708 7.38854C6.95708 5.711 8.32213 4.34638 9.99923 4.34638C11.6763 4.34638 13.0414 5.711 13.0414 7.38854C13.0414 9.06607 11.6763 10.4307 9.99923 10.4307Z" fill="#2D2D2D"/>
</svg>
