<svg width="40" height="40" viewBox="0 0 40 40" fill="none" xmlns="http://www.w3.org/2000/svg">
<g clip-path="url(#clip0)">
<path d="M37.9487 6.66664H2.05133C0.923047 6.66664 0 7.58969 0 8.71789V31.282C0 32.4101 0.923047 33.3334 2.05133 33.3334H37.9487C39.0769 33.3334 40.0001 32.4103 40.0001 31.282V8.71789C40 7.58969 39.077 6.66664 37.9487 6.66664ZM37.1789 8.205L21.18 20.2052C20.8923 20.4241 20.4508 20.561 19.9999 20.559C19.5491 20.561 19.1077 20.4241 18.8199 20.2052L2.82102 8.205H37.1789ZM28.6328 20.9969L37.3508 31.7662C37.3595 31.777 37.3702 31.7852 37.3795 31.795H2.62047C2.62969 31.7848 2.64047 31.777 2.64922 31.7662L11.3672 20.9969C11.6343 20.6667 11.5837 20.1826 11.2528 19.9148C10.9226 19.6477 10.4384 19.6984 10.1713 20.0287L1.53844 30.6928V9.16656L17.8973 21.4358C18.5123 21.8937 19.2604 22.0953 19.9998 22.0973C20.7383 22.0958 21.487 21.8942 22.1023 21.4358L38.4613 9.16656V30.6926L29.8287 20.0287C29.5615 19.6984 29.0769 19.6477 28.7471 19.9148C28.4163 20.1819 28.3655 20.6667 28.6328 20.9969Z" fill="black"/>
</g>
<defs>
<clipPath id="clip0">
<rect width="40" height="40" fill="white"/>
</clipPath>
</defs>
</svg>
