<svg width="20" height="20" viewBox="0 0 20 20" fill="none" xmlns="http://www.w3.org/2000/svg">
<path d="M19.8234 3.97348L13.7578 10L19.8234 16.0265C19.933 15.7973 19.9996 15.544 19.9996 15.2734V4.72656C19.9996 4.45598 19.933 4.20266 19.8234 3.97348Z" fill="white"/>
<path d="M18.2433 2.96875H1.75895C1.48836 2.96875 1.23504 3.03527 1.00586 3.14492L8.75832 10.8583C9.44379 11.5438 10.5585 11.5438 11.2439 10.8583L18.9964 3.14492C18.7672 3.03527 18.5139 2.96875 18.2433 2.96875Z" fill="white"/>
<path d="M0.176172 3.97348C0.0665234 4.20266 0 4.45598 0 4.72656V15.2734C0 15.544 0.0665234 15.7974 0.176172 16.0265L6.24176 10L0.176172 3.97348Z" fill="white"/>
<path d="M12.9308 10.8286L12.0725 11.6869C10.9304 12.829 9.07187 12.829 7.92973 11.6869L7.07144 10.8286L1.00586 16.8551C1.23504 16.9647 1.48836 17.0312 1.75895 17.0312H18.2433C18.5139 17.0312 18.7672 16.9647 18.9964 16.8551L12.9308 10.8286Z" fill="white"/>
</svg>
