<svg width="30" height="30" viewBox="0 0 30 30" fill="none" xmlns="http://www.w3.org/2000/svg">
<g clip-path="url(#clip0)">
<path d="M29.4999 23.4997C29.776 23.4997 29.9998 23.2758 29.9998 22.9997C29.9998 22.7236 29.776 22.4997 29.4999 22.4997H28.9999C28.9999 22.2236 28.7761 21.9998 28.4999 21.9998C28.2238 21.9998 28 22.2236 28 22.4997H20.0001C20.0001 22.2236 19.7762 21.9998 19.5001 21.9998C19.2239 21.9998 19.0001 22.2236 19.0001 22.4997H18.5001C18.224 22.4997 18.0002 22.7236 18.0002 22.9997C18.0002 23.2758 18.224 23.4997 18.5001 23.4997H19.0001V24.9996H18.5001C18.224 24.9996 18.0002 25.2235 18.0002 25.4996C18.0002 25.7758 18.224 25.9996 18.5001 25.9996H19.0001V26.4996H18.5001C18.224 26.4996 18.0002 26.7234 18.0002 26.9995C18.0002 27.2756 18.224 27.4995 18.5001 27.4995H19.0001V28.9995H10.5002V24.8628C11.2398 25.2796 12.0743 25.4989 12.9232 25.4996C15.7626 25.4587 18.0334 23.1277 18 20.2882C18.0155 18.314 16.913 16.5009 15.1531 15.6062C15.7325 14.8174 16.0429 13.8632 16.0387 12.8845C16.0561 10.7246 14.5409 8.85507 12.4242 8.42464C12.9598 7.24353 12.8677 5.87258 12.179 4.77373C11.4903 3.67482 10.2966 2.99427 9.00015 2.9614C8.98532 2.9614 8.97103 2.96351 8.95626 2.96368C8.69007 1.24299 7.19907 -0.0200325 5.45804 0.000240609C3.71702 0.0205137 2.25589 1.31799 2.02984 3.04443C0.763768 3.28712 -0.110259 4.45276 0.0115549 5.73618C0.133369 7.01959 1.21112 7.9999 2.50034 7.99996H5.4148C5.45992 8.14375 5.51341 8.28478 5.57499 8.4223C3.45839 8.85419 1.944 10.7245 1.96175 12.8846C1.95748 13.8633 2.2679 14.8175 2.84721 15.6062C1.08738 16.501 -0.0150462 18.3141 0.00036372 20.2883C-0.0330341 23.1277 2.23779 25.4587 5.07719 25.4996C5.92614 25.499 6.76062 25.2797 7.50023 24.8629V28.9995H0.500394C0.224247 28.9995 0.000422309 29.2234 0.000422309 29.4995C0.000422309 29.7757 0.224247 29.9995 0.500394 29.9995H29.4999C29.776 29.9995 29.9998 29.7757 29.9998 29.4995C29.9998 29.2234 29.776 28.9995 29.4999 28.9995H28.9999V27.4996H29.4999C29.776 27.4996 29.9998 27.2757 29.9998 26.9996C29.9998 26.7234 29.776 26.4996 29.4999 26.4996H28.9999V25.9996H29.4999C29.776 25.9996 29.9998 25.7758 29.9998 25.4997C29.9998 25.2235 29.776 24.9997 29.4999 24.9997H28.9999V23.4997H29.4999V23.4997ZM5.23099 6.82711C5.23099 6.88518 5.23756 6.94225 5.24013 6.99996H2.50034C1.67196 6.99996 1.00037 6.32843 1.00037 5.49999C1.00037 4.67155 1.67196 4.00001 2.50034 4.00001C2.63293 4.00007 2.76014 3.9474 2.85395 3.85359C2.94769 3.75984 3.00037 3.63264 3.00037 3.49998C2.99779 2.19512 4.00107 1.1087 5.30201 1.00757C6.60294 0.906377 7.76208 1.8247 7.9613 3.11427C6.33055 3.61236 5.22039 5.12207 5.23099 6.82711ZM9.50024 28.9996H8.50023V24.1279C8.67941 23.961 8.84652 23.7816 9.00021 23.591C9.1539 23.7816 9.321 23.961 9.50018 24.1278V28.9996H9.50024ZM9.56094 22.646L12.8537 19.3532C13.0459 19.1575 13.0445 18.8434 12.8505 18.6494C12.6566 18.4554 12.3425 18.454 12.1467 18.6463L9.50024 21.2927V16.2068L11.8537 13.8534C12.0468 13.6578 12.0459 13.343 11.8514 13.1486C11.6571 12.9542 11.3423 12.9532 11.1466 13.1463L9.50018 14.7928V12.4999C9.50018 12.2237 9.2763 11.9999 9.00021 11.9999C8.72406 11.9999 8.50023 12.2238 8.50023 12.4999V14.7928L6.85378 13.1463C6.6582 12.9532 6.34338 12.9542 6.14897 13.1486C5.95456 13.3429 5.95362 13.6577 6.14674 13.8534L8.50018 16.2069V21.2927L5.85372 18.6463C5.65814 18.4531 5.34332 18.4541 5.14891 18.6485C4.95455 18.8428 4.95356 19.1577 5.14668 19.3533L8.43941 22.646C7.70742 23.7962 6.44035 24.4946 5.07707 24.4997C2.78973 24.4594 0.966265 22.5758 1.00025 20.2883C0.979038 18.4794 2.12242 16.8615 3.83467 16.2776C4.0002 16.2231 4.12535 16.0863 4.16496 15.9165C4.20457 15.7468 4.15283 15.5687 4.02855 15.4466C3.34126 14.7719 2.95643 13.8477 2.9617 12.8846C2.929 10.9768 4.43782 9.39793 6.34519 9.34414C6.55162 9.36236 6.7489 9.25549 6.8464 9.07262C6.93165 8.90458 6.91495 8.70284 6.80321 8.55115C6.43261 8.05264 6.23199 7.44825 6.23094 6.82705C6.20656 5.27189 7.4451 3.99023 9.00015 3.9614C10.5553 3.99023 11.7938 5.27189 11.7694 6.82705C11.7683 7.44825 11.5677 8.05264 11.1971 8.55115C11.0876 8.70413 11.0739 8.90575 11.1617 9.07215C11.25 9.24096 11.425 9.34654 11.6156 9.34607C13.5367 9.38064 15.0677 10.9633 15.0386 12.8846C15.0439 13.8477 14.659 14.7719 13.9717 15.4466C13.8474 15.5687 13.7957 15.7468 13.8353 15.9165C13.8749 16.0863 14.0001 16.2231 14.1656 16.2776C16.0859 16.9491 17.2566 18.8922 16.9526 20.9037C16.6486 22.9152 14.9562 24.4256 12.9232 24.4997C11.5599 24.4946 10.2929 23.7962 9.56094 22.646ZM27.9999 28.9996H20.0001V27.4996H27.9999V28.9996ZM27.9999 26.4996H20.0001V25.9996H27.9999V26.4996ZM27.9999 24.9996H20.0001V23.4997H27.9999V24.9996Z" fill="#2D2D2D"/>
<path d="M21.5001 12.5001H27.5C28.7892 12.5 29.867 11.5197 29.9888 10.2363C30.1106 8.95288 29.2366 7.78724 27.9705 7.5446C27.7417 5.80264 26.257 4.50024 24.5001 4.50024C22.7432 4.50024 21.2585 5.80264 21.0297 7.5446C19.7635 7.78724 18.8895 8.95288 19.0113 10.2363C19.1331 11.5197 20.2109 12.5 21.5001 12.5001ZM21.5001 8.50013C21.6327 8.50019 21.7599 8.44752 21.8537 8.35371C21.9475 8.25996 22.0001 8.13276 22.0001 8.0001C22.0001 6.61943 23.1194 5.50013 24.5001 5.50013C25.8808 5.50013 27.0001 6.61937 27.0001 8.0001C27.0001 8.1327 27.0527 8.2599 27.1465 8.35371C27.2403 8.44746 27.3675 8.50013 27.5001 8.50013C28.3285 8.50013 29.0001 9.17172 29.0001 10.0001C29.0001 10.8285 28.3286 11.5001 27.5001 11.5001H21.5002C20.6718 11.5001 20.0003 10.8286 20.0003 10.0001C20.0003 9.17167 20.6717 8.50013 21.5001 8.50013Z" fill="#2D2D2D"/>
</g>
<defs>
<clipPath id="clip0">
<rect width="30" height="30" fill="white"/>
</clipPath>
</defs>
</svg>
