<svg width="45" height="45" viewBox="0 0 45 45" fill="none" xmlns="http://www.w3.org/2000/svg">
<path d="M22.4008 4.4C21.4008 5 20.3008 4.6 19.8008 4.5C20.1008 5.4 20.9008 6 21.9008 6C23.1008 6 24.2008 5 24.2008 3.7C24.2008 3.1 24.0008 2.6 23.6008 2.2C23.3008 2.6 23.2008 4 22.4008 4.4Z" fill="#EE7562"/>
<path d="M42.3 20.6H5C3.9 20.6 3 21.5 3 22.6V39.9C3 40.4 3.2 40.9 3.6 41.3H42.3C43.1 41.3 43.7 40.7 43.7 39.9V21.2C43.4 20.8 42.9 20.6 42.3 20.6ZM11.7 28.3C11.7 29.4 10.9 30.4 9.9 30.7L11.6 33.9C11.8 34.2 11.7 34.6 11.4 34.7C11.3 34.7 11.2 34.8 11.1 34.8C10.9 34.8 10.7 34.7 10.6 34.5L8.6 30.8H7.7V34.2C7.7 34.5 7.4 34.8 7.1 34.8C6.8 34.8 6.5 34.5 6.5 34.2V30.2V29.6V26.1C6.5 25.8 6.8 25.5 7.1 25.5H9.3C10.6 25.5 11.7 26.6 11.7 27.9V28.3ZM19.4 29.4C19.7 29.4 20 29.7 20 30C20 30.3 19.7 30.6 19.4 30.6H16V33.4H19.4C19.7 33.4 20 33.7 20 34C20 34.3 19.7 34.6 19.4 34.6H15.4C15.1 34.6 14.8 34.3 14.8 34V25.9C14.8 25.6 15.1 25.3 15.4 25.3H19.4C19.7 25.3 20 25.6 20 25.9C20 26.2 19.7 26.5 19.4 26.5H16V29.4H19.4ZM29.1 34.1C29.1 34.4 28.9 34.6 28.7 34.7C28.6 34.7 28.6 34.7 28.5 34.7C28.3 34.7 28.1 34.6 28 34.4L23.9 28V34.1C23.9 34.4 23.6 34.7 23.3 34.7C23 34.7 22.7 34.4 22.7 34.1V25.9C22.7 25.6 22.9 25.4 23.1 25.3C23.4 25.2 23.6 25.3 23.8 25.6L27.9 32.1V26C27.9 25.7 28.2 25.4 28.5 25.4C28.8 25.4 29.1 25.7 29.1 26V34.1ZM37.9 26.5H35.4V34.1C35.4 34.4 35.1 34.7 34.8 34.7C34.5 34.7 34.2 34.4 34.2 34.1V26.5H31.7C31.4 26.5 31.1 26.2 31.1 25.9C31.1 25.6 31.4 25.3 31.7 25.3H37.9C38.2 25.3 38.5 25.6 38.5 25.9C38.5 26.2 38.3 26.5 37.9 26.5Z" fill="#EE7562"/>
<path d="M9.19922 26.5H7.69922V29.4H9.29922C9.99922 29.4 10.4992 28.8 10.4992 28.2V27.7C10.4992 27.1 9.89922 26.5 9.19922 26.5Z" fill="#EE7562"/>
<path d="M42.3 17.6H38.1L25 5.4C25.3 4.9 25.4 4.4 25.4 3.8C25.4 1.9 23.9 0.300003 21.9 0.300003C19.9 0.300003 18.4 1.8 18.4 3.8C18.4 4.4 18.6 5 18.9 5.5L5.8 17.6H2.6C1.2 17.6 0 18.8 0 20.2V39.9C0 41.3 1.2 42.5 2.6 42.5H42.3C43.7 42.5 44.9 41.3 44.9 39.9V20.2C44.9 18.8 43.8 17.6 42.3 17.6ZM21.9 1.5C22.5 1.5 23.1 1.8 23.5 2.2C23.9 2.6 24.1 3.1 24.1 3.7C24.1 4.9 23.1 6 21.8 6C20.8 6 20 5.3 19.7 4.5C19.6 4.3 19.6 4 19.6 3.8C19.7 2.5 20.7 1.5 21.9 1.5ZM19.7 6.4C20.3 6.9 21.1 7.2 21.9 7.2C22.8 7.2 23.6 6.9 24.2 6.3L36.4 17.6H7.6L19.7 6.4ZM1.2 39.9V20.2C1.2 19.4 1.8 18.8 2.6 18.8H42.3C43.1 18.8 43.7 19.4 43.7 20.2V21.2V39.9C43.7 40.7 43.1 41.3 42.3 41.3H3.6H2.6C1.8 41.3 1.2 40.6 1.2 39.9Z" fill="#010202"/>
<path d="M9.2 25.3H7.1C6.8 25.3 6.5 25.6 6.5 25.9V29.4V30V34C6.5 34.3 6.8 34.6 7.1 34.6C7.4 34.6 7.7 34.3 7.7 34V30.6H8.6L10.6 34.3C10.7 34.5 10.9 34.6 11.1 34.6C11.2 34.6 11.3 34.6 11.4 34.5C11.7 34.3 11.8 34 11.6 33.7L9.9 30.5C10.9 30.2 11.7 29.3 11.7 28.1V27.6C11.7 26.4 10.6 25.3 9.2 25.3ZM10.5 28.3C10.5 29 9.9 29.5 9.3 29.5H7.7V26.6H9.3C10 26.6 10.5 27.2 10.5 27.8V28.3Z" fill="white"/>
<path d="M19.5004 26.5C19.8004 26.5 20.1004 26.2 20.1004 25.9C20.1004 25.6 19.8004 25.3 19.5004 25.3H15.5004C15.2004 25.3 14.9004 25.6 14.9004 25.9V34C14.9004 34.3 15.2004 34.6 15.5004 34.6H19.5004C19.8004 34.6 20.1004 34.3 20.1004 34C20.1004 33.7 19.8004 33.4 19.5004 33.4H16.1004V30.6H19.5004C19.8004 30.6 20.1004 30.3 20.1004 30C20.1004 29.7 19.8004 29.4 19.5004 29.4H16.1004V26.5H19.5004Z" fill="white"/>
<path d="M28.4992 25.3C28.1992 25.3 27.8992 25.6 27.8992 25.9V32L23.7992 25.5C23.6992 25.3 23.3992 25.2 23.0992 25.2C22.7992 25.3 22.6992 25.5 22.6992 25.8V34C22.6992 34.3 22.9992 34.6 23.2992 34.6C23.5992 34.6 23.8992 34.3 23.8992 34V28L27.9992 34.5C28.0992 34.7 28.2992 34.8 28.4992 34.8C28.5992 34.8 28.5992 34.8 28.6992 34.8C28.9992 34.7 29.0992 34.5 29.0992 34.2V26C29.0992 25.6 28.7992 25.3 28.4992 25.3Z" fill="white"/>
<path d="M37.8996 25.3H31.6996C31.3996 25.3 31.0996 25.6 31.0996 25.9C31.0996 26.2 31.3996 26.5 31.6996 26.5H34.1996V34.1C34.1996 34.4 34.4996 34.7 34.7996 34.7C35.0996 34.7 35.3996 34.4 35.3996 34.1V26.5H37.8996C38.1996 26.5 38.4996 26.2 38.4996 25.9C38.4996 25.6 38.2996 25.3 37.8996 25.3Z" fill="white"/>
</svg>
