<svg width="40" height="40" viewBox="0 0 40 40" fill="none" xmlns="http://www.w3.org/2000/svg">
<path d="M37.3376 13.6471H25.0129L22.6055 6.51405C22.5382 5.13515 21.3954 4.03406 20 4.03406C18.6047 4.03406 17.4619 5.13515 17.3946 6.51397L14.987 13.6469H2.66242C1.19437 13.6471 0 14.8414 0 16.3095V33.3035C0 34.7717 1.19437 35.9659 2.66242 35.9659H5.50718C5.90749 35.9659 6.23186 35.6415 6.23186 35.2413C6.23186 34.841 5.90749 34.5166 5.50718 34.5166H2.66242C1.99351 34.5166 1.44929 33.9724 1.44929 33.3035V16.3095C1.44929 15.6406 1.99351 15.0964 2.66242 15.0964H15.505C15.5058 15.0964 15.5065 15.0966 15.5073 15.0966C15.5081 15.0966 15.509 15.0964 15.5097 15.0964H24.4902C24.491 15.0964 24.4918 15.0966 24.4926 15.0966C24.4934 15.0966 24.4942 15.0964 24.495 15.0964H37.3376C38.0065 15.0964 38.5507 15.6406 38.5507 16.3095V33.3035C38.5507 33.9724 38.0065 34.5167 37.3376 34.5167H7.82616C7.42585 34.5167 7.10147 34.8411 7.10147 35.2413C7.10147 35.6416 7.42585 35.966 7.82616 35.966H37.3376C38.8055 35.966 40 34.7717 40 33.3036V16.3095C39.9999 14.8414 38.8055 13.6471 37.3376 13.6471ZM20 5.48351C20.6392 5.48351 21.1593 6.00366 21.1593 6.64288C21.1593 7.2821 20.6392 7.80225 20 7.80225C19.3607 7.80225 18.8406 7.2821 18.8406 6.64288C18.8406 6.00366 19.3607 5.48351 20 5.48351ZM16.5166 13.6471L18.2336 8.56045C18.6986 8.9892 19.3191 9.25163 19.9999 9.25163C20.6807 9.25163 21.3013 8.9892 21.7662 8.56045L23.483 13.6471H16.5166Z" fill="#2D2D2D"/>
<path d="M25.2388 20.5508C24.8385 20.5508 24.5141 20.8753 24.5141 21.2755V25.8771L21.2927 20.8828C21.1184 20.6127 20.787 20.4897 20.4789 20.5804C20.1707 20.6711 19.959 20.9542 19.959 21.2755V28.3374C19.959 28.7376 20.2834 29.0621 20.6837 29.0621C21.084 29.0621 21.4084 28.7376 21.4084 28.3374V23.7359L24.6298 28.7301C24.7658 28.9408 24.9973 29.062 25.2388 29.062C25.3069 29.062 25.3758 29.0523 25.4436 29.0325C25.7518 28.9418 25.9635 28.6587 25.9635 28.3374V21.2755C25.9635 20.8754 25.6391 20.5508 25.2388 20.5508Z" fill="#2D2D2D"/>
<path d="M9.13593 25.4859C10.0213 25.0745 10.6369 24.1773 10.6369 23.1385C10.6369 21.7118 9.47616 20.551 8.04953 20.551H6.50984C6.10953 20.551 5.78516 20.8754 5.78516 21.2757V28.3375C5.78516 28.7378 6.10953 29.0622 6.50984 29.0622C6.91015 29.0622 7.23453 28.7378 7.23453 28.3375V25.7259H7.61773L9.2182 28.6824C9.34929 28.9248 9.59866 29.0623 9.85616 29.0623C9.97257 29.0623 10.0909 29.0341 10.2005 28.9748C10.5525 28.7842 10.6833 28.3445 10.4927 27.9925L9.13593 25.4859ZM8.0514 24.2764C8.04976 24.2764 8.0482 24.2764 8.04656 24.2764H7.23453V22.0002H8.04953C8.67703 22.0002 9.18757 22.5107 9.18757 23.1383C9.18757 23.7652 8.67796 24.2753 8.0514 24.2764Z" fill="#2D2D2D"/>
<path d="M17.211 25.55C17.6114 25.55 17.9357 25.2256 17.9357 24.8254C17.9357 24.4251 17.6114 24.1007 17.211 24.1007H14.5753V22.0003H17.211V22.0002C17.6114 22.0002 17.9357 21.6757 17.9357 21.2755C17.9357 20.8753 17.6114 20.5508 17.211 20.5508H13.8507C13.4504 20.5508 13.126 20.8753 13.126 21.2755V28.3374C13.126 28.7376 13.4504 29.0621 13.8507 29.0621H17.211C17.6114 29.0621 17.9357 28.7376 17.9357 28.3374C17.9357 27.9371 17.6114 27.6127 17.211 27.6127H14.5753V25.55H17.211V25.55Z" fill="#2D2D2D"/>
<path d="M30.8761 26.353C30.4757 26.353 30.1514 26.6775 30.1514 27.0777V28.3375C30.1514 28.7378 30.4757 29.0622 30.8761 29.0622C31.2764 29.0622 31.6007 28.7378 31.6007 28.3375V27.0777C31.6007 26.6775 31.2763 26.353 30.8761 26.353Z" fill="#2D2D2D"/>
<path d="M33.49 20.5508H28.2628C27.8625 20.5508 27.5381 20.8753 27.5381 21.2755C27.5381 21.6757 27.8625 22.0002 28.2628 22.0002H30.1518V25.1451C30.1518 25.5453 30.4761 25.8698 30.8764 25.8698C31.2768 25.8698 31.6011 25.5453 31.6011 25.1451V22.0002H33.49C33.8903 22.0002 34.2147 21.6757 34.2147 21.2755C34.2146 20.8754 33.8902 20.5508 33.49 20.5508Z" fill="#2D2D2D"/>
</svg>
