<svg width="45" height="45" viewBox="0 0 45 45" fill="none" xmlns="http://www.w3.org/2000/svg">
<g clip-path="url(#clip0)">
<path d="M22.0996 5C21.0996 5.6 20.0996 5.2 19.5996 5.1C19.8996 5.9 20.6996 6.5 21.6996 6.5C22.8996 6.5 23.9996 5.5 23.9996 4.2C23.9996 3.6 23.7996 3.1 23.3996 2.7C23.0996 3 22.9996 4.5 22.0996 5Z" fill="#EE7562"/>
<path d="M5.09961 21.3C3.99961 21.3 3.09961 22.2 3.09961 23.3V40.7C3.09961 41.2 3.29961 41.7 3.69961 42.1H42.4996C43.2996 42.1 43.8996 41.5 43.8996 40.7V21.9C43.4996 21.5 42.9996 21.3 42.4996 21.3H5.09961ZM9.39961 29.4C9.69961 29.7 10.0996 29.9 10.4996 30.1L10.5996 30.2C11.0996 30.4 11.4996 30.7 11.9996 31C12.6996 31.6 12.9996 32.6 12.7996 33.5C12.5996 34.4 11.8996 35.1 10.9996 35.4C10.6996 35.5 10.3996 35.5 10.0996 35.5C9.09961 35.5 8.09961 35.1 7.39961 34.5C7.19961 34.3 7.09961 33.9 7.39961 33.7C7.59961 33.5 7.99961 33.4 8.19961 33.7C8.79961 34.2 9.89961 34.5 10.6996 34.3C11.1996 34.2 11.4996 33.8 11.5996 33.3C11.6996 32.8 11.5996 32.3 11.1996 32C10.8996 31.7 10.4996 31.5 10.0996 31.3L9.99961 31.2C9.49961 31 8.89961 30.7 8.49961 30.2C7.99961 29.7 7.79961 29 7.89961 28.3C7.99961 27.5 8.49961 26.8 9.19961 26.5C10.2996 26 11.7996 26.4 12.6996 27.1C12.9996 27.3 12.9996 27.7 12.7996 27.9C12.5996 28.2 12.1996 28.2 11.9996 28C11.3996 27.6 10.3996 27.3 9.69961 27.6C9.39961 27.7 9.19961 28 9.09961 28.4C9.09961 28.8 9.19961 29.1 9.39961 29.4ZM21.9996 35.5C21.6996 35.6 21.2996 35.5 21.1996 35.1L20.5996 33.5H16.9996L16.4996 35.1C16.3996 35.3 16.1996 35.5 15.8996 35.5C15.7996 35.5 15.7996 35.5 15.6996 35.5C15.3996 35.4 15.1996 35.1 15.2996 34.7L18.0996 26.4C18.1996 26.2 18.3996 26 18.6996 26C18.8996 26 19.1996 26.2 19.2996 26.4L22.3996 34.7C22.4996 35.1 22.2996 35.4 21.9996 35.5ZM29.4996 35.5H25.7996C25.4996 35.5 25.1996 35.2 25.1996 34.9V26.6C25.1996 26.3 25.4996 26 25.7996 26C26.0996 26 26.3996 26.3 26.3996 26.6V34.3H29.4996C29.7996 34.3 30.0996 34.6 30.0996 34.9C30.0996 35.2 29.7996 35.5 29.4996 35.5ZM36.6996 30.2C36.9996 30.2 37.2996 30.5 37.2996 30.8C37.2996 31.1 36.9996 31.4 36.6996 31.4H33.2996V34.3H36.6996C36.9996 34.3 37.2996 34.6 37.2996 34.9C37.2996 35.2 36.9996 35.5 36.6996 35.5H32.6996C32.3996 35.5 32.0996 35.2 32.0996 34.9V26.7C32.0996 26.4 32.3996 26.1 32.6996 26.1H36.6996C36.9996 26.1 37.2996 26.4 37.2996 26.7C37.2996 27 36.9996 27.3 36.6996 27.3H33.2996V30.2H36.6996Z" fill="#EE7562"/>
<path d="M17.4004 32.3H20.2004L18.7004 28.4L17.4004 32.3Z" fill="#EE7562"/>
<path d="M42.5 18.3H38.2L24.8 5.8C25.1 5.3 25.2 4.8 25.2 4.2C25.2 2.3 23.6 0.700001 21.7 0.700001C19.8 0.700001 18.2 2.3 18.2 4.2C18.2 4.8 18.4 5.4 18.7 5.9L5.4 18.3H2.6C1.2 18.3 0 19.5 0 20.9V40.7C0 42.1 1.2 43.3 2.6 43.3H42.5C43.9 43.3 45.1 42.1 45.1 40.7V20.9C45.1 19.5 43.9 18.3 42.5 18.3ZM21.7 2C22.4 2 23 2.3 23.4 2.8C23.8 3.1 24 3.7 24 4.2C24 5.5 23 6.5 21.7 6.5C20.8 6.5 20 5.9 19.6 5.1C19.5 4.8 19.4 4.5 19.4 4.2C19.4 3 20.5 2 21.7 2ZM19.5 6.9C20.1 7.4 20.9 7.7 21.7 7.7C22.6 7.7 23.4 7.4 24 6.8L36.4 18.3H7.2L19.5 6.9ZM1.2 40.7V20.9C1.2 20.1 1.8 19.5 2.6 19.5H42.5C43.3 19.5 43.9 20.1 43.9 20.9V21.9V40.7C43.9 41.5 43.3 42.1 42.5 42.1H3.7H2.6C1.8 42.1 1.2 41.5 1.2 40.7Z" fill="#010202"/>
<path d="M36.7992 27.3C37.0992 27.3 37.3992 27 37.3992 26.7C37.3992 26.4 37.0992 26.1 36.7992 26.1H32.7992C32.4992 26.1 32.1992 26.4 32.1992 26.7V34.9C32.1992 35.2 32.4992 35.5 32.7992 35.5H36.7992C37.0992 35.5 37.3992 35.2 37.3992 34.9C37.3992 34.6 37.0992 34.3 36.7992 34.3H33.3992V31.4H36.7992C37.0992 31.4 37.3992 31.1 37.3992 30.8C37.3992 30.5 37.0992 30.2 36.7992 30.2H33.3992V27.3H36.7992Z" fill="white"/>
<path d="M9.7 27.6C10.4 27.3 11.4 27.6 12 28C12.3 28.2 12.6 28.1 12.8 27.9C13 27.6 12.9 27.3 12.7 27.1C11.8 26.5 10.4 26.1 9.2 26.5C8.5 26.8 8 27.4 7.9 28.3C7.8 29 8 29.7 8.5 30.2C8.9 30.7 9.5 31 10 31.2L10.1 31.3C10.5 31.5 10.9 31.7 11.2 32C11.6 32.3 11.7 32.8 11.6 33.3C11.5 33.8 11.1 34.2 10.7 34.3C9.9 34.5 8.8 34.2 8.2 33.7C8 33.5 7.6 33.5 7.4 33.7C7.2 33.9 7.2 34.3 7.4 34.5C8.1 35.1 9.2 35.5 10.1 35.5C10.4 35.5 10.7 35.5 11 35.4C11.9 35.2 12.6 34.4 12.8 33.5C13 32.6 12.7 31.6 12 31C11.6 30.6 11.1 30.4 10.6 30.2L10.5 30.1C10.1 29.9 9.7 29.7 9.4 29.4C9.2 29.1 9 28.8 9.1 28.4C9.2 28 9.3 27.8 9.7 27.6Z" fill="white"/>
<path d="M19.1998 26.4C19.0998 26.2 18.7998 26 18.5998 26C18.2998 26 18.0998 26.2 17.9998 26.4L15.1998 34.7C15.0998 35 15.2998 35.4 15.5998 35.5C15.6998 35.5 15.6998 35.5 15.7998 35.5C16.0998 35.5 16.2998 35.3 16.3998 35.1L16.8998 33.5H20.5998L21.1998 35.1C21.2998 35.4 21.6998 35.6 21.9998 35.5C22.2998 35.4 22.4998 35 22.3998 34.7L19.1998 26.4ZM17.3998 32.3L18.6998 28.4L20.1998 32.3H17.3998Z" fill="white"/>
<path d="M29.4992 34.3H26.3992V26.6C26.3992 26.3 26.0992 26 25.7992 26C25.4992 26 25.1992 26.3 25.1992 26.6V34.9C25.1992 35.2 25.4992 35.5 25.7992 35.5H29.4992C29.7992 35.5 30.0992 35.2 30.0992 34.9C30.0992 34.6 29.7992 34.3 29.4992 34.3Z" fill="white"/>
</g>
<defs>
<clipPath id="clip0">
<rect width="45" height="45" fill="white"/>
</clipPath>
</defs>
</svg>
