<svg width="40" height="40" viewBox="0 0 40 40" fill="none" xmlns="http://www.w3.org/2000/svg">
<path d="M37.3376 13.6471H25.0129L22.6055 6.51405C22.5382 5.13515 21.3954 4.03406 20 4.03406C18.6047 4.03406 17.4619 5.13515 17.3946 6.51398L14.987 13.6469H2.66242C1.19437 13.6471 0 14.8414 0 16.3095V33.3035C0 34.7717 1.19437 35.9659 2.66242 35.9659H5.50718C5.90749 35.9659 6.23186 35.6415 6.23186 35.2413C6.23186 34.841 5.90749 34.5166 5.50718 34.5166H2.66242C1.99351 34.5166 1.44929 33.9724 1.44929 33.3035V16.3095C1.44929 15.6406 1.99351 15.0964 2.66242 15.0964H15.505C15.5058 15.0964 15.5065 15.0966 15.5073 15.0966C15.5081 15.0966 15.509 15.0964 15.5097 15.0964H24.4902C24.491 15.0964 24.4918 15.0966 24.4926 15.0966C24.4934 15.0966 24.4942 15.0964 24.495 15.0964H37.3376C38.0065 15.0964 38.5507 15.6406 38.5507 16.3095V33.3035C38.5507 33.9724 38.0065 34.5167 37.3376 34.5167H7.82616C7.42585 34.5167 7.10147 34.8411 7.10147 35.2413C7.10147 35.6416 7.42585 35.966 7.82616 35.966H37.3376C38.8055 35.966 40 34.7717 40 33.3036V16.3095C39.9999 14.8414 38.8055 13.6471 37.3376 13.6471ZM20 5.48351C20.6392 5.48351 21.1593 6.00366 21.1593 6.64288C21.1593 7.2821 20.6392 7.80226 20 7.80226C19.3607 7.80226 18.8406 7.2821 18.8406 6.64288C18.8406 6.00366 19.3607 5.48351 20 5.48351ZM16.5166 13.6471L18.2336 8.56046C18.6986 8.98921 19.3191 9.25163 19.9999 9.25163C20.6807 9.25163 21.3013 8.98921 21.7662 8.56046L23.483 13.6471H16.5166Z" fill="black"/>
<path d="M22.1914 29.6186C22.3656 29.8022 22.6011 29.9045 22.846 29.903L25.8014 29.8849C26.3115 29.8817 26.7226 29.4383 26.7198 28.8945C26.7168 28.3508 26.3009 27.9125 25.7909 27.9155L23.7591 27.928L23.722 21.0355C23.7191 20.4919 23.3031 20.0534 22.7931 20.0565C22.2831 20.0596 21.8719 20.503 21.8748 21.0468L21.9172 28.924C21.9186 29.1851 22.0173 29.435 22.1914 29.6186Z" fill="black"/>
<path d="M33 28.8563C32.997 28.3126 32.5811 27.8743 32.0711 27.8772L30.4086 27.8874L30.398 25.9182L32.0604 25.908C32.5705 25.9049 32.9816 25.4615 32.9788 24.9177C32.9758 24.374 32.5599 23.9356 32.0499 23.9386L30.3874 23.9488L30.3768 21.9795L32.0393 21.9694C32.5493 21.9662 32.9605 21.5229 32.9576 20.979C32.9546 20.4354 32.5387 19.997 32.0288 20L29.4428 20.0158C29.1979 20.0173 28.9635 20.1225 28.7913 20.3082C28.6191 20.4939 28.5232 20.7449 28.5245 21.0061L28.5669 28.8832C28.5683 29.155 28.673 29.4007 28.8411 29.5778C29.0092 29.755 29.2408 29.8638 29.4957 29.8622L32.0817 29.8464C32.5918 29.8435 33.0029 29.4001 33 28.8563Z" fill="black"/>
<path d="M18.2698 29.2506C18.4301 29.7667 18.9528 30.0466 19.4371 29.8756C19.9212 29.7046 20.1837 29.1475 20.0232 28.6312L17.5796 20.7687C17.4538 20.3638 17.0977 20.0913 16.6977 20.0938C16.2976 20.0962 15.9444 20.3731 15.823 20.7794L13.4641 28.6712C13.3549 29.0363 13.4558 29.4191 13.6951 29.6711C13.7954 29.7769 13.9201 29.8596 14.0636 29.9083C14.5496 30.0735 15.0691 29.7873 15.224 29.2693L15.4136 28.6355L18.0737 28.6192L18.2698 29.2506ZM16.0031 26.6625L16.7201 24.2642L17.4627 26.6538L16.0031 26.6625Z" fill="black"/>
<path d="M6.95011 28.0306C6.44007 28.0338 6.02886 28.4771 6.03178 29.021C6.0333 29.2929 6.13794 29.5384 6.30601 29.7156C6.47409 29.8927 6.70567 30.0015 6.96062 30L8.8078 29.9888C10.3356 29.9794 11.5714 28.6468 11.5627 27.0179C11.5544 25.4697 10.4245 24.2038 9.00072 24.09C8.95869 24.084 8.91622 24.08 8.87266 24.0803L8.77607 24.0808C8.52935 24.0823 8.29689 23.9813 8.12146 23.7964C7.94603 23.6115 7.84864 23.3649 7.84723 23.1018C7.84431 22.5589 8.25624 22.1147 8.76556 22.1115L10.6127 22.1002C11.1227 22.0971 11.5339 21.6538 11.531 21.1099C11.528 20.5662 11.1121 20.1278 10.6022 20.1309L8.75498 20.1421C7.22721 20.1514 5.99136 21.4842 6.00005 23.113C6.00435 23.9021 6.29653 24.6421 6.82282 25.1968C7.34839 25.7507 8.04464 26.0537 8.78391 26.05C8.78482 26.05 8.78574 26.0501 8.78665 26.0501C9.29591 26.0469 9.71264 26.4861 9.7155 27.0291C9.71691 27.2921 9.62224 27.5399 9.4488 27.7269C9.2753 27.914 9.04395 28.0179 8.79729 28.0193L6.95011 28.0306Z" fill="black"/>
</svg>
