<svg width="30" height="30" viewBox="0 0 30 30" fill="none" xmlns="http://www.w3.org/2000/svg">
<path d="M23.8485 19.4221L26.5133 19.4235H26.5137C26.7406 19.4235 26.9539 19.3352 27.1143 19.1748C27.2749 19.0143 27.3633 18.8009 27.3633 18.5739V14.0952C27.3633 13.6267 26.9822 13.2456 26.5137 13.2456H23.849C23.3805 13.2456 22.9994 13.6267 22.9994 14.0952V18.5725C22.9993 19.0406 23.3803 19.4218 23.8485 19.4221ZM23.8782 14.1246H26.4844V18.5446L23.8782 18.5433V14.1246ZM29.1211 27.3713V12.5133C29.1211 11.9479 28.6611 11.4879 28.0957 11.4879H22.1203V10.0769L22.7007 10.3236C22.9617 10.4346 23.2604 10.4085 23.4989 10.2521C23.7369 10.0961 23.8803 9.83314 23.8826 9.54861L23.8914 8.47828C23.8942 8.13381 23.6913 7.82414 23.3743 7.68943L15.4395 4.31479V3.51562H18.8255C19.2939 3.51562 19.6751 3.13447 19.6751 2.66602V0.849609C19.6751 0.381152 19.2939 0 18.8255 0H15.4102C14.9417 0 14.5605 0.381152 14.5605 0.849609V4.31637L12.0759 5.37305C11.8525 5.46803 11.7485 5.72602 11.8434 5.94943C11.9384 6.17273 12.1965 6.2768 12.4198 6.18182L15.0019 5.08377L23.0123 8.49059L23.0041 9.49758L21.8572 9.0102C21.8537 9.00867 21.8503 9.00721 21.8468 9.0058L15.3341 6.23789C15.1229 6.1483 14.8808 6.14824 14.6695 6.23795L8.1501 9.00855C8.14869 9.00914 8.14728 9.00973 8.14588 9.01037L6.99961 9.49752L6.99129 8.49059L10.5162 6.99141C10.7395 6.89643 10.8435 6.63838 10.7486 6.41502C10.6536 6.19166 10.3955 6.08766 10.1722 6.18264L6.62941 7.68937C6.31248 7.82414 6.10951 8.13375 6.11232 8.47822L6.12111 9.54861C6.12346 9.83309 6.26689 10.0961 6.50479 10.2521C6.74273 10.4081 7.04109 10.435 7.30301 10.3236L7.87963 10.0785V11.4879H1.9043C1.33893 11.4879 0.878906 11.9479 0.878906 12.5133V27.3714C0.382852 27.4429 0 27.8701 0 28.3863V28.9734C0 29.5395 0.46002 30 1.02539 30H28.9746C29.54 30 30 29.5395 30 28.9734V28.3862C30 27.8701 29.6171 27.4429 29.1211 27.3713ZM15.4395 0.878906H18.7962V2.63672H15.4395V0.878906ZM8.75859 9.70494L15.0019 7.05164L21.2414 9.7033V19.4305C21.2414 19.6733 21.4382 19.87 21.6809 19.87C21.9236 19.87 22.1203 19.6733 22.1203 19.4305V12.3668H28.0957C28.1764 12.3668 28.2422 12.4325 28.2422 12.5133V27.3596H22.1203V21.4813C22.1203 21.2386 21.9236 21.0419 21.6809 21.0419C21.4382 21.0419 21.2414 21.2386 21.2414 21.4813V27.3596H18.256V21.799C18.256 20.0036 16.7954 18.543 15 18.543C13.2046 18.543 11.744 20.0037 11.744 21.799V27.3596H8.75859V9.70494ZM17.3771 21.799V27.3596H12.6229V21.799C12.6229 20.4882 13.6892 19.4219 14.9999 19.4219C16.3107 19.4219 17.3771 20.4882 17.3771 21.799ZM1.75781 12.5133C1.75781 12.4325 1.82355 12.3668 1.9043 12.3668H7.87969V27.3596H1.75781V12.5133ZM29.1211 28.9734C29.1211 29.0548 29.0554 29.1211 28.9746 29.1211H1.02539C0.944648 29.1211 0.878906 29.0548 0.878906 28.9734V28.3862C0.878906 28.3048 0.944648 28.2385 1.02539 28.2385H28.9746C29.0554 28.2385 29.1211 28.3048 29.1211 28.3862V28.9734ZM6.15105 13.2456H3.48633C3.01787 13.2456 2.63672 13.6268 2.63672 14.0953V18.5725C2.63672 19.0406 3.01758 19.4218 3.48586 19.4221L6.15059 19.4235H6.15105C6.37793 19.4235 6.59121 19.3352 6.75164 19.1748C6.91219 19.0143 7.00066 18.8009 7.00066 18.5739V14.0952C7.00066 13.6267 6.61951 13.2456 6.15105 13.2456ZM6.12176 18.5446L3.51562 18.5432V14.1246H6.12176V18.5446ZM6.15146 20.3024L3.48686 20.301H3.48615C3.25934 20.301 3.04611 20.3893 2.88563 20.5496C2.72508 20.7101 2.6366 20.9236 2.6366 21.1506V25.6311C2.6366 26.0996 3.01775 26.4807 3.48621 26.4807H6.15094C6.61939 26.4807 7.00055 26.0996 7.00055 25.6311V21.1521C7.00066 20.6838 6.61975 20.3026 6.15146 20.3024ZM6.12176 25.6018H3.51562V21.1799L6.12176 21.1813V25.6018ZM23.8489 26.4807H26.5137C26.9821 26.4807 27.3633 26.0996 27.3633 25.6311V21.1521C27.3633 20.6838 26.9824 20.3027 26.5141 20.3024L23.8495 20.3011H23.8488C23.622 20.3011 23.4088 20.3894 23.2484 20.5498C23.0878 20.7102 22.9993 20.9237 22.9993 21.1507V25.6312C22.9993 26.0996 23.3805 26.4807 23.8489 26.4807ZM23.8782 21.1799L26.4844 21.1813V25.6018H23.8782V21.1799ZM15 15.1985C16.657 15.1985 18.005 13.8504 18.005 12.1935C18.005 10.5366 16.657 9.1885 15 9.1885C13.343 9.1885 11.995 10.5366 11.995 12.1935C11.995 13.8504 13.343 15.1985 15 15.1985ZM15 10.0674C16.1723 10.0674 17.1261 11.0211 17.1261 12.1935C17.1261 13.3658 16.1723 14.3196 15 14.3196C13.8277 14.3196 12.8739 13.3659 12.8739 12.1935C12.8739 11.0212 13.8277 10.0674 15 10.0674ZM14.1762 12.2641L14.7962 12.5829C14.8911 12.6378 15.0931 12.6646 15.2461 12.5576L16.1803 11.9259C16.3813 11.79 16.4341 11.5168 16.2981 11.3157C16.1622 11.1147 15.8891 11.0619 15.6879 11.1979L14.9695 11.6837L14.5782 11.4825C14.3623 11.3715 14.0974 11.4566 13.9864 11.6723C13.8755 11.8881 13.9604 12.153 14.1762 12.2641Z" fill="black"/>
</svg>
