<svg width="30" height="30" viewBox="0 0 30 30" fill="none" xmlns="http://www.w3.org/2000/svg">
<g clip-path="url(#clip0)">
<path d="M17.6227 22.8747V17.4957C17.6227 17.2536 17.4264 17.0574 17.1844 17.0574C16.9423 17.0574 16.7461 17.2536 16.7461 17.4957V22.8747C16.7461 23.1167 16.9423 23.313 17.1844 23.313C17.4264 23.313 17.6227 23.1167 17.6227 22.8747Z" fill="black"/>
<path d="M29.4222 5.84537H28.366V3.89695C28.366 3.6007 28.1249 3.35971 27.8287 3.35971H25.7732V0.730488C25.7732 0.327715 25.4455 0 25.0427 0H4.95805C4.55527 0 4.22756 0.327715 4.22756 0.730488V3.35965H2.33252C2.03627 3.35965 1.79527 3.60064 1.79527 3.89689V5.84537H0.578516C0.270254 5.84537 0.0195312 6.09615 0.0195312 6.40436V8.11863C0.0195312 8.42684 0.270312 8.67762 0.578516 8.67762H0.776914V29.5616C0.776914 29.8037 0.973145 29.9999 1.2152 29.9999H28.7855C29.0277 29.9999 29.2238 29.8037 29.2238 29.5616V22.8747C29.2238 22.6327 29.0276 22.4364 28.7855 22.4364C28.5434 22.4364 28.3473 22.6327 28.3473 22.8747V29.1234H27.0742V25.3994V14.9711V11.0338C27.0742 10.668 26.7766 10.3704 26.4108 10.3704H18.8789H14.705C14.4629 10.3704 14.2667 10.5666 14.2667 10.8087C14.2667 11.0507 14.4629 11.247 14.705 11.247H18.4406V29.1234H11.5602V11.247H12.6681C12.9102 11.247 13.1064 11.0508 13.1064 10.8087C13.1064 10.5667 12.9102 10.3704 12.6681 10.3704H11.1219H3.58994C3.22414 10.3704 2.92654 10.668 2.92654 11.0338V29.1234H1.65348V8.67773H28.3472V20.8287C28.3472 21.0708 28.5434 21.267 28.7855 21.267C29.0276 21.267 29.2238 21.0708 29.2238 20.8287V8.67768H29.4222C29.7304 8.67768 29.9812 8.4269 29.9812 8.11869V6.40441C29.9812 6.09615 29.7305 5.84537 29.4222 5.84537ZM19.3171 11.247H26.1976V14.5328H19.3171V11.247ZM19.3171 15.4093H26.1976V24.9611H19.3171V15.4093ZM19.3171 25.8377H26.1976V29.1234H19.3171V25.8377ZM3.80316 11.247H10.6836V14.5328H3.80316V11.247ZM3.80316 15.4093H10.6836V24.9611H3.80316V15.4093ZM3.80316 25.8377H10.6836V29.1234H3.80316V25.8377ZM25.7732 4.23627H27.4894V5.84537H25.7732V4.23627ZM5.10418 0.876621H24.8966V5.84543H5.10418V0.876621ZM2.67184 4.23627H4.22756V5.84537H2.67184V4.23627ZM29.1046 7.80111H0.896094V6.72199H29.1046V7.80111H29.1046Z" fill="black"/>
</g>
<defs>
<clipPath id="clip0">
<rect width="30" height="30" fill="white"/>
</clipPath>
</defs>
</svg>
