<?xml version="1.0" encoding="UTF-8"?>
<svg width="531px" height="359px" viewBox="0 0 531 359" version="1.1" xmlns="http://www.w3.org/2000/svg" xmlns:xlink="http://www.w3.org/1999/xlink">
    <!-- Generator: Sketch 61.2 (89653) - https://sketch.com -->
    <title>ua-with-crimea</title>
    <desc>Created with Sketch.</desc>
    <g id="ua-with-crimea" stroke="none" stroke-width="1" fill="none" fill-rule="evenodd">
        <polyline id="Fill-1" fill="#F8CA24" points="343.363 281.286 345.363 285.635 345.761 287.618 349.705 288.721 347.511 292.557 344.548 291.993 343.968 294.604 339.119 293.995 335.191 298.508 331.283 298.508 322.99 302.514 321.955 304.069 321.796 307.217 316.31 308.286 310.876 313.157 311.654 316.912 315.064 318.092 316.876 317.315 319.136 315.055 325.197 314.897 334.138 322.815 337.433 322.952 339.906 322.334 346.933 327.221 348.906 334.352 348.271 338.164 345.218 339.907 345.091 341.825 345.55 345.959 342.365 348.993 341.085 351.297 342.97 353.43 347.98 354.166 350.199 357.42 355.201 359 356.187 356.047 358.41 358.61 362.441 357.399 367.324 353.237 370.64 349.922 374.476 342.098 383.646 337.442 387.935 337.725 390.263 334.928 394.23 338.164 395.466 336.815 395.916 333.221 398.367 331.842 399.726 329.877 402.699 329.311 403.837 324.614 407.859 321.211 411.707 320.891 418.007 326.897 422.72 326.627 424.994 323.141 430.386 325.389 434.042 322.996 436.955 321.985 434.199 317.297 436.041 311.62 437.966 309.213 442.271 308.811 441.39 306.391 433.767 305.827 424.714 305.12 421.855 312.043 418.123 309.666 416.367 307.286 413.003 311.594 408.414 313.815 403.703 317.309 396.937 314.452 393.322 313.846 389.619 309.819 392.445 305.655 390.019 301.209 384.892 299.452 383.765 297.338 380.076 297.338 380.076 293.25 376.306 291.854 373.984 289.243 370.826 288.491 369.515 285.287 364.669 284.502 362.396 289.348 360.037 287.774 359.744 283.52 358.216 282.432 355.841 285.7 350.05 280.375 347.033 277.36 343.363 281.286"></polyline>
        <polyline id="Fill-4" fill="#F8CA24" points="71.032 73.871 74.057 72.164 79.053 76.729 76.891 80.417 77.746 82.501 80.678 81.75 84.326 86.332 89.123 85.207 93.972 86.361 95.521 85.673 95.582 83.952 93.703 82.757 94.916 80.985 95.424 78.184 99.625 77.878 99.625 75.137 101.6 75.441 101.467 73.7 103.567 72.509 109.117 71.785 115.831 74.396 116.682 72.691 116.357 68.538 118.818 67.518 120.648 65.618 120.648 61.775 123.82 60.492 123.076 57.693 119.973 57.615 119.092 54.387 122.836 52.599 123.492 50.861 118.947 48.256 116.983 43.193 110.406 43.193 110.406 37.66 109.334 35.515 111.564 34.276 111.498 31.554 109.496 29.782 109.227 27.257 112.971 22.733 113.001 20.193 109.652 16.571 104.773 18.199 102.342 14.624 97.748 17.688 79.666 16.23 76.852 19.446 76.998 23.604 68.357 29.931 62.957 26.03 56.33 26.435 56.211 28.715 59.646 35.886 56.042 40.497 63.211 48.669 64.231 57.128 71.322 63.411 63.781 64.024 66.951 70.104 71.032 73.871"></polyline>
        <polyline id="Fill-5" fill="#F8CA24" points="214.956 53.644 215.139 56.518 220.816 59.409 221.055 64.259 218.963 66.148 222.082 69.89 220.965 72.324 223.148 73.416 223.745 77.827 220.579 80.888 221.826 84.311 219.709 89.347 223.863 90.36 224.767 94.632 226.381 97.541 227.055 103.259 225.041 105.909 225.605 108.161 228.052 110.844 224.277 114.851 218.367 117.136 218.367 120.576 220.044 123.698 222.027 125.333 219.48 127.439 221.309 129.413 220.301 131.509 221.148 132.43 221.059 134.796 219.094 136.83 225.4 142.239 225.535 144.867 229.204 144.802 231.219 140.85 233.41 140.766 237.395 137.2 239.32 140.056 241.055 139.981 244.186 141.582 245.531 137.326 250.078 137.645 252.445 134.926 254.074 137.932 255.602 136.938 259.482 137.597 260.11 135.089 263.422 131.468 266.555 127.462 264.725 124.968 266.959 123.938 266.581 116.661 268.829 112.499 274.147 111.335 279.792 114.309 282.987 112.036 285.893 107.118 285.575 103.3 288.284 101.147 289.403 96.995 292.002 96.442 294.032 91.755 289.137 87.715 290.756 84.248 285.866 80.752 278.182 85.696 272.018 86.181 266.983 82.487 267.924 79.268 263.137 74.698 254.531 75.185 255.372 71.068 252.327 68.246 250.197 64.638 251.121 58.692 246.41 52.388 246.395 52.392 243.489 50.293 241.732 43.993 239.47 42.266 231.781 41.984 229.566 44.79 226.066 44.266 225.641 41.56 223.613 41.671 219.48 47.579 217.561 47.269 218.545 49.947 214.956 53.644"></polyline>
        <polyline id="Fill-6" fill="#F8CA24" points="161.457 145.232 164.146 143.133 167.703 145.897 170.249 144.788 170.532 141.611 169.619 135.6 166.75 130.181 167.928 128.156 168.836 124.913 169.191 122.987 167.932 120.966 170.224 118.747 166.391 115.831 162.117 111.397 163.382 105.325 165.75 104.636 166.108 99.974 164.971 95.691 163.021 97.083 159.32 93.634 154.102 87.84 156.496 84.965 154.563 80.546 152.881 80.737 150.336 81.112 147.262 83.085 144.45 82.78 140.12 87.262 136.205 91.882 133.41 93.852 130.788 93.852 128.438 97.38 126.123 97.059 126.903 99.059 125.916 102.432 124.076 105.73 123.705 109.811 125.321 114.507 125.805 121.513 122.129 125.265 123.844 130.558 124.645 136.335 122.644 139.724 123.868 144.625 122.686 148.952 122.383 154.79 123.478 157.596 122.782 163.594 127.071 170.026 130.267 170.186 131.382 174.059 132.223 173.723 132.465 168.832 134.684 168.942 135.633 170.504 136.685 167.35 139.934 167.635 141.222 170.756 143.181 168.26 145.024 168.692 145.466 170.309 147.711 170.184 149.178 168.373 151.553 170.213 153.377 167.506 156.491 161.967 156.18 150.231 159.061 145.949 161.457 145.232"></polyline>
        <polyline id="Fill-7" fill="#F8CA24" points="166.644 44.087 164.832 42.661 164.896 46.467 162.545 48.213 163.219 51.055 160.92 54.78 160.357 58.393 155.809 61.012 155.668 65.057 157.033 67.228 156.097 69.491 158.135 73.176 156.025 76.669 155.295 80.026 157.521 85.108 155.263 87.819 159.946 93.018 163.096 95.952 165.492 94.24 166.996 99.893 166.576 105.311 164.133 106.022 163.073 111.122 166.973 115.176 170.973 118.216 173.928 117.181 178.907 117.261 183.199 116.068 186.098 117.477 188.793 114.86 193.146 116.554 196.537 116.191 199.4 113.401 203.389 112.86 204.237 118.801 203.406 122.807 205.504 126.026 211.586 126.026 216.176 123.383 218.943 123.508 217.491 120.796 217.491 116.533 223.778 114.105 226.854 110.837 224.808 108.596 224.088 105.714 226.143 103.012 225.529 97.815 223.935 94.946 223.121 91.082 218.502 89.955 220.883 84.29 219.561 80.65 222.816 77.504 222.341 73.995 219.814 72.728 221.055 70.028 217.752 66.064 220.156 63.889 219.965 59.964 214.295 57.073 214.053 53.313 217.529 49.733 216.568 47.108 214.489 46.774 211.51 42.538 211.949 37.699 209.959 34.643 207.848 34.529 205.806 39.195 201.82 39.195 200.24 41.962 199.889 47.431 196.018 43.186 195.59 38.064 190.893 36.63 188.496 39.66 184.703 33.678 181.76 37.696 177.03 38.512 174.789 34.4 173.406 40.064 170.772 41.643 169.289 40.296 166.644 44.087"></polyline>
        <polyline id="Fill-8" fill="#F8CA24" points="85.914 147.526 89.387 147.602 90.303 149.268 92.499 150.522 93.912 153.945 99.269 153.721 104.424 157.563 105.188 162.229 108.283 163.481 112.292 166.895 115.917 164.815 118.242 166.51 120.365 170.305 125.149 171.375 126.252 170.383 121.875 163.813 122.58 157.716 121.497 154.931 121.814 148.819 122.961 144.617 121.705 139.587 123.734 136.154 122.984 130.758 121.131 125.032 124.902 121.181 124.453 114.685 122.813 109.919 123.218 105.462 125.102 102.091 125.977 99.102 124.754 95.966 124.967 92.802 120.277 92.313 117.272 93.266 113.171 96.815 107.753 96.489 105.061 96.062 103.586 97.936 102.895 103.839 101.919 107.983 97.45 110.466 92.966 110.237 91.531 111.931 92.276 116.059 88.455 116.559 86.148 120.251 82.024 121.415 80.24 123.997 82.476 126.017 83.185 130.697 84.546 135.573 83.428 138.288 83.239 140.46 86.795 140.46 87.479 142.387 84.48 144.462 85.914 147.526"></polyline>
        <polyline id="Fill-9" fill="#F8CA24" points="110.336 29.348 112.367 31.147 112.455 34.786 110.498 35.875 111.283 37.455 111.283 42.317 117.585 42.317 119.656 47.648 124.578 50.472 123.53 53.236 120.134 54.862 120.648 56.754 123.753 56.831 124.87 61.014 121.526 62.369 121.526 65.975 119.32 68.263 117.285 69.105 117.58 72.866 116.258 75.506 109.006 72.685 103.85 73.358 102.384 74.186 102.561 76.477 100.502 76.161 100.502 78.695 96.165 79.009 95.746 81.327 94.939 82.507 96.476 83.481 96.38 86.259 94.346 87.157 93.43 89.251 93.904 89.897 96.188 88.638 97.464 90.761 96.461 92.682 96.244 96.645 98.307 100.135 102.408 100.472 102.744 97.587 104.686 95.115 107.848 95.616 112.865 95.918 116.834 92.483 120.188 91.418 125.897 92.015 125.643 95.831 125.755 96.118 128.013 96.433 130.316 92.977 133.127 92.977 135.606 91.226 139.469 86.672 144.117 81.862 147.049 82.178 150.021 80.271 152.768 79.868 154.473 79.671 155.197 76.336 157.119 73.158 155.124 69.546 156.049 67.311 154.781 65.293 154.949 60.494 159.553 57.84 160.08 54.467 162.279 50.902 161.555 47.851 164.012 46.027 163.924 40.833 166.456 42.821 168.797 39.471 169.419 35.606 167.43 35.855 165.078 33.225 161.596 36.292 159.004 35.922 158.559 31.465 156.041 30.575 156.039 27.386 152.136 26.378 150.713 28.508 147.404 28.508 141.857 24.421 136.064 24.869 134.154 22.22 128.738 22.366 125.673 18.134 119.749 18.566 118.114 17.338 113.879 20.252 113.844 23.054 110.141 27.531 110.336 29.348"></polyline>
        <polyline id="Fill-10" fill="#F8CA24" points="25.341 142.303 26.838 146.257 31.658 147.175 35.072 151.985 38.912 152.753 41.96 155.8 43.147 151.386 43.306 145.608 46.089 142.678 49.217 137.903 52.27 138.809 56.404 137.511 61.936 137.743 66.527 136.811 70.205 137.177 71.041 135.868 68.462 134.506 68.117 131.152 69.534 127.062 70.271 122.641 73.805 121.519 78.227 122.175 79.582 123.401 81.48 120.657 85.583 119.497 87.93 115.74 91.246 115.307 90.594 111.679 92.574 109.338 97.244 109.575 101.152 107.405 102.032 103.684 102.307 101.344 97.783 100.972 95.351 96.86 95.594 92.447 96.457 90.796 95.87 89.816 93.652 91.04 92.422 89.36 93.396 87.128 89.121 86.11 83.986 87.313 80.344 82.74 77.225 83.543 75.912 80.347 77.936 76.899 73.933 73.241 70.907 74.948 67.092 71.426 67.339 76.375 63.598 81.047 54.996 81.632 51.705 86.922 41.137 94.997 34.975 102.034 24.622 111.07 20.217 117.182 20.759 120.716 23.916 125.376 20.861 131.922 24.715 136.059 25.341 142.303"></polyline>
        <polyline id="Fill-11" fill="#F8CA24" points="284.698 197.053 289.389 200.848 288.293 205.75 294.293 205.459 296.672 208.27 300.075 204.575 304.778 205.567 309.202 206.914 313.071 205.225 313.292 201.268 314.344 196.62 317.274 197.791 321.215 194.004 324.323 195.014 332.391 187.483 337.444 183.543 334.877 172.813 344.667 166.311 339.731 163.807 337.667 160.807 340.575 159.446 345.672 159.989 346.854 159.303 342.131 155.607 337.27 155.682 331.206 154.536 330.114 149.608 324.747 147.843 316.245 147.552 316.34 147.794 316.256 152.298 308.711 154.979 304.45 150.32 299.715 150.108 297.231 152.8 296.542 157.981 293.002 155.874 288.784 160.011 286.838 156.204 283.415 155.92 278.729 156.7 278.874 160.04 274.793 165.368 270.858 164.245 266.807 166.036 262.273 164.366 254.487 163.768 250.373 168.469 249.605 174.102 245.928 172.012 240.576 177.674 238.567 175.662 234.887 178 232.026 181.448 229.363 179.489 227.345 181.569 232.309 185.219 233.514 187.95 234.873 190.737 240.304 190.889 241.156 191.854 243.596 189.711 249.305 190.037 251.636 191.307 254.004 188.496 256.179 188.299 257.677 191.069 261.342 189.479 264.311 186.508 268.645 187.202 270.928 192.297 275.649 191.338 278.663 192.157 278.487 194.387 281.772 191.491 286.784 191.938 286.049 195.899 284.698 197.053"></polyline>
        <polyline id="Fill-12" fill="#F8CA24" points="436.479 164.182 433.465 166.108 432.534 162.211 430.971 161.888 430.442 164.084 427.262 163.897 425.217 161.714 422.149 166.893 419.096 167.385 418.518 163.09 414.473 160.134 414.17 156.489 409.836 154.862 409.286 150.085 406.637 148.558 402.612 151.807 397.872 149.397 392.301 149.32 384.315 142.11 379.526 142.184 375.692 142.259 372.6 142.637 368.92 144.781 365.256 146.155 360.35 151.136 359.204 154.501 360.743 157.273 359.696 161.823 353.999 161.655 349.243 160.171 347.708 159.822 345.866 160.894 340.725 160.349 338.979 161.164 340.329 163.125 346.411 166.207 335.874 173.205 338.428 183.887 332.959 188.149 324.856 195.719 324.499 199.641 326.286 201.811 325.629 208.207 322.819 210.87 323.135 212.385 325.309 214.977 328.112 214.534 333.12 216.094 334.276 218.409 339.665 214.008 343.747 218.008 350.418 216.957 356.116 215.85 360.942 217.459 364.68 215.662 369.995 213.364 374.483 214.073 381.217 213.268 382.073 206.45 379.506 204.971 380.038 201.409 378.026 200.834 377.147 198.596 379.641 195.811 377.342 194.157 378.141 188.284 380.778 188.989 383.356 187.545 391.78 187.467 394.698 186.495 397.887 188.393 402.79 184.967 407.167 187.938 411.317 185.778 411.84 188.125 414.579 188.446 414.411 191.481 416.868 194.409 415.874 197.17 416.69 197.938 419.454 196.707 421.928 198.584 423.491 197.166 427.428 197.162 428.348 195.397 431.004 192.879 428.944 191.032 429.547 185.323 434.317 184.961 435.184 186.696 438.063 186.758 438.776 183.971 437.461 182.307 438.975 181.235 439.043 177.61 435.719 175.754 435.477 168.399 437.387 165.092 436.479 164.182"></polyline>
        <polyline id="Fill-13" fill="#F8CA24" points="388.768 89.679 385.85 90.676 383.028 94.871 379.932 93.76 375.485 97.897 375.346 97.888 374.715 99.964 375.713 101.878 372.659 104.857 373.858 105.807 374.524 108.54 378.788 109.226 379.821 111.067 383.602 110.243 383.602 115.056 386.389 118.483 388.401 118.352 389.967 116.783 391.596 119.059 390.778 120.548 393.051 122.585 391.659 124.708 392.948 127.378 388.342 127.302 389.536 129.432 388.52 132.817 385.247 136.175 380.997 135.239 380.098 134.277 378.995 135.73 378.28 138.946 379.76 141.302 384.649 141.227 392.647 148.445 398.09 148.522 402.504 150.766 406.553 147.499 410.108 149.543 410.645 154.228 414.997 155.86 415.315 159.661 419.338 162.602 419.846 166.375 421.604 166.09 425.055 160.258 427.663 163.037 429.76 163.162 430.249 161.14 430.03 153.493 433.038 154.731 435.206 152.785 438.551 152.785 440.264 154.104 441.297 152.038 446.993 146.262 447.686 142.573 450.958 138.149 454.124 142.184 456.092 140.369 457.686 141.858 457.758 144.268 461.344 145.165 462.372 146.998 466 146.372 469.239 144.069 469.383 140.983 469.233 136.776 466.6 133.318 463.219 128.838 461.43 123.546 463.686 119.497 462.682 115.781 464.305 112.537 462.842 107.993 464.112 104.261 464.315 101.565 458.991 95.677 455.62 95.235 450.26 89.264 450.676 84.3 446.723 84.44 445.415 79.64 441.167 80.138 440.887 83.373 437.354 85.462 430.229 85.024 425.227 89.472 424.918 92.852 421.995 93.398 416.819 86.964 415.088 90.025 412.25 89.671 408.03 83.12 401.002 83.395 395.204 89.96 394.125 88.49 392.061 90.483 388.768 89.679"></polyline>
        <polyline id="Fill-14" fill="#F8CA24" points="355.008 86.69 353.663 82.023 349.208 85.164 344.477 82.526 339.569 85.977 334.848 84.697 328.948 84.697 326.12 82.665 324.788 84.067 320.733 84.226 314.754 89.819 311.1 91.608 305.127 91.204 301.727 89.061 299.991 90.393 297.147 93.153 294.797 92.195 292.858 96.682 298.149 100.611 298.852 104.591 303.889 109.077 302.819 114.496 307.446 116.696 308.079 120.097 314.368 125.362 312.01 136.663 315.899 146.661 324.899 146.97 330.862 148.931 331.94 153.778 337.354 154.804 342.428 154.725 347.827 158.947 349.469 159.325 354.145 160.781 359 160.924 359.813 157.403 358.249 154.589 359.586 150.661 364.766 145.4 368.543 143.983 372.317 141.782 375.629 141.384 378.733 141.321 377.344 139.11 378.18 135.349 380.024 132.917 381.452 134.438 384.959 135.21 387.739 132.36 388.586 129.538 386.833 126.396 391.538 126.477 390.653 124.645 391.899 122.733 389.67 120.735 390.559 119.12 389.858 118.139 388.79 119.209 385.991 119.39 382.725 115.368 382.725 111.333 379.37 112.063 378.231 110.026 373.807 109.313 373.077 106.308 371.329 104.927 374.633 101.704 373.77 100.049 374.448 97.819 372.393 97.659 367.93 99.968 360.661 100.739 361.733 95.448 357.801 92.287 358.11 89.036 355.008 86.69"></polyline>
        <polyline id="Fill-15" fill="#F8CA24" points="233.313 175.985 234.632 177.123 238.691 174.543 240.56 176.412 245.762 170.905 248.908 172.696 249.538 168.088 254.115 162.858 262.465 163.5 266.776 165.088 270.793 163.313 274.461 164.36 277.983 159.759 277.817 155.961 283.374 155.033 287.395 155.369 289.022 158.546 292.87 154.772 295.848 156.544 296.399 152.412 299.344 149.212 304.85 149.46 308.967 153.96 315.389 151.676 315.459 147.955 311.098 136.739 313.401 125.696 307.272 120.565 306.667 117.296 301.825 114.995 302.928 109.398 298.038 105.042 297.344 101.108 292.211 97.296 290.11 97.743 289.057 101.654 286.489 103.694 286.793 107.323 283.645 112.645 279.86 115.337 274.024 112.262 269.411 113.27 267.471 116.862 267.866 124.483 266.067 125.315 267.653 127.479 264.092 132.032 260.906 135.521 260.138 138.599 255.795 137.861 253.753 139.19 252.279 136.46 250.455 138.551 246.16 138.249 244.713 142.838 240.861 140.868 238.869 140.952 237.227 138.53 233.762 141.634 231.766 141.709 229.748 145.671 225.58 145.745 225.655 147.239 221.563 150.25 221.845 152.338 223.873 151.66 223.361 155.396 225.125 155.913 225.864 160.258 226.71 163.506 229.477 163.586 229.943 167.715 233.178 167.95 233.092 172.057 233.313 175.985"></polyline>
        <polyline id="Fill-16" fill="#F8CA24" points="329.782 13.43 327.124 16.089 327.206 19.98 321.034 23.064 319.37 26.247 319.583 30.007 321.598 31.247 322.247 41.461 318.145 45.185 320.516 50.161 316.989 55.26 317.459 57.614 323.45 61.503 324.118 67.43 321.93 69.615 323.717 73.646 320.432 76.933 322.442 79.684 321.18 83.33 324.393 83.205 326.01 81.505 329.231 83.819 334.969 83.819 339.403 85.018 344.426 81.491 349.157 84.126 354.168 80.597 355.772 86.167 359.03 88.632 358.721 91.898 362.702 95.099 361.758 99.737 367.676 99.11 372.211 96.765 375.17 96.992 379.723 92.753 382.682 93.815 385.288 89.942 388.727 88.765 391.799 89.515 393.602 87.776 391.555 84.987 391.823 82.745 387.393 82.031 386 74.749 387.588 69.12 382.12 59.957 383.694 57.809 382.227 56.116 378.059 57.816 376.862 50.918 372.055 51.053 367.526 52.949 362.778 53.277 362.481 50.018 357.282 49.884 353.889 51.735 351.508 49.539 353.53 45.638 349.049 42.651 351.319 40.056 351.319 36.733 346.639 31.75 349.469 28.253 355.026 27.254 355.393 24.572 346.053 15.525 345.907 8.944 337.379 0.974 330.926 5.775 329.35 1.986 327.463 1.818 325.391 8.956 329.782 13.43"></polyline>
        <polyline id="Fill-17" fill="#F8CA24" points="251.113 64.463 253.016 67.683 256.331 70.757 255.623 74.244 263.467 73.799 268.92 79.002 267.999 82.144 272.274 85.278 277.897 84.835 285.889 79.691 291.862 83.956 290.219 87.472 294.793 91.243 296.95 92.122 299.418 89.73 301.678 87.991 305.415 90.345 310.926 90.717 314.252 89.091 320.174 83.548 321.461 79.832 319.282 76.842 322.668 73.453 320.885 69.419 323.196 67.105 322.624 62.014 316.667 58.147 316.051 55.07 319.504 50.081 317.069 44.973 321.346 41.094 320.75 31.758 318.733 30.516 318.479 26.054 320.387 22.407 326.315 19.441 326.241 15.729 328.547 13.425 324.407 9.207 326.573 1.739 321.608 1.297 315.25 7.068 312.135 5.733 308.84 7.98 304.176 4.067 299.02 4.199 298.008 14.006 292.245 16.966 288.059 16.19 285.887 14.743 271.301 14.029 267.833 18.28 265.879 15.189 261.201 15.189 260.375 18.779 254.365 24.643 252.275 32.24 249.928 32.828 248.85 36.326 248.987 39.568 250.752 41.039 250.751 45.408 252.695 46.755 251.862 51.588 247.4 52.242 252.048 58.459 251.113 64.463"></polyline>
        <polyline id="Fill-18" fill="#F8CA24" points="449.663 235.059 450.389 232.03 446.366 229.686 441.811 226.354 442.432 221.551 446.502 221.239 447.262 218.051 450.344 217.049 451.016 212.965 446.881 211.729 442.895 208.508 437.727 208.35 435.866 204.377 431.594 200.108 429.506 195.508 429.059 195.93 427.963 198.039 423.833 198.039 421.977 199.727 419.336 197.723 416.514 198.975 414.848 197.416 415.87 194.586 413.514 191.776 413.659 189.223 411.12 188.924 410.711 187.084 407.108 188.959 402.797 186.032 397.924 189.436 394.596 187.455 391.924 188.342 383.59 188.418 380.899 189.928 378.879 189.389 378.284 193.756 380.948 195.668 378.163 198.782 378.684 200.11 381.016 200.778 380.461 204.51 383.016 205.979 382.008 214.055 374.465 214.959 370.11 214.27 365.045 216.461 361.643 218.098 363.663 220.813 363.663 225.368 366.59 227.188 368.731 224.061 371.188 227.647 371.188 233.164 374.153 237.842 373.788 240.83 378.198 242.401 380.661 247.162 376.153 252.483 380.014 253.821 378.452 257.807 384.92 260.567 389.264 261.469 390.989 268.651 393.559 266.553 395.096 263.094 396.723 266.887 398.75 267.364 406.918 258.912 414.35 251.037 422.61 250.137 425.026 250.137 427.01 252.786 431.86 246.692 436.036 245.203 439.331 243.633 442.485 245.692 444.37 241.786 446.793 240.17 446.553 236.338 449.663 235.059"></polyline>
        <polyline id="Fill-19" fill="#F8CA24" points="384.659 261.411 377.325 258.276 378.862 254.35 374.655 252.891 379.612 247.043 377.577 243.116 372.829 241.424 373.241 238.049 370.309 233.422 370.309 227.922 368.733 225.614 366.84 228.379 362.786 225.854 362.786 221.102 360.704 218.305 356.059 216.754 350.569 217.823 343.444 218.944 339.612 215.184 333.983 219.784 332.504 216.821 328.047 215.432 326.266 215.715 327.965 216.92 328.231 222.284 325.54 222.565 326.325 223.926 327.655 225.008 327.983 231.491 326.793 233.049 322.877 234.278 321.293 237.309 325.348 239.592 326.229 242.725 324.176 243.055 324.176 246.073 320.374 246.772 320.374 249.877 315.192 250.774 313.692 247.85 310.784 247.85 309.485 249.84 305.323 250.368 304.784 252.799 301.838 250.782 300.672 252.008 299.665 254.112 293.94 254.631 294.743 256.748 299.331 260.364 303.59 259.752 304.063 261.008 309.944 261.805 305.893 267.44 301.1 264.034 295.245 263.606 287.506 263.455 285.102 261.901 280.901 263.506 284.241 267.588 288.506 265.311 292.678 267.246 297.188 266.471 298.116 270.164 292.481 272.42 289.803 271.436 287.708 273.528 288.258 275.061 292.618 275.606 297.34 274.996 300.27 278.516 303.125 278.215 305.471 283.051 310.077 282.643 315.379 280.286 320.559 280.733 326.489 280.45 328.354 277.739 329.844 280.12 333.381 275.657 334.694 281.065 338.135 281.477 340.317 282.743 343.338 280.061 343.342 280.069 346.881 276.278 349.204 272.707 351.934 275.584 354.422 273.387 358.817 278.065 362.233 271.084 366.811 277.725 368.473 274.952 371.833 277.639 373.442 279.604 371.629 281.264 373.499 284.752 375.985 284.041 376.926 280.287 376.137 276.653 379.43 275.371 381.081 277.571 380.303 280.213 380.303 282.381 382.542 283.68 384.127 281.727 384.542 278.139 383.506 274.584 384.764 270.272 386.76 272.1 390.229 269.268 388.54 262.217 384.659 261.411"></polyline>
        <polyline id="Fill-20" fill="#F8CA24" points="502.045 182.827 496.225 182.586 495.295 178.161 491.024 177.93 488.491 172.559 484.415 173.164 482.616 171.463 484.137 168.741 482.622 165.983 478.866 164.42 476.663 158.712 477.293 153.679 476.918 148.807 474.239 145.262 469.786 144.759 466.348 147.202 461.909 147.97 460.762 145.926 456.901 144.958 456.819 142.249 456.086 141.566 454.018 143.475 450.979 139.596 448.512 142.931 447.809 146.688 442.02 152.554 440.573 155.45 438.25 153.664 435.543 153.664 433.213 155.753 430.946 154.82 431.124 161.022 433.254 161.465 434.03 164.703 436.6 163.061 438.485 164.948 436.362 168.623 436.584 175.229 439.932 177.096 439.844 181.698 438.725 182.489 439.735 183.768 438.741 187.655 434.635 187.561 433.795 185.879 430.344 186.141 429.864 190.676 432.301 192.858 430.18 194.87 432.327 199.594 436.592 203.86 438.297 207.489 443.217 207.641 447.297 210.938 452.006 212.342 451.127 217.721 448.002 218.731 447.209 222.063 443.211 222.373 442.749 225.95 446.846 228.953 451.395 231.598 450.413 235.702 447.471 236.911 447.639 239.606 452.858 236.129 455.629 235.151 457.606 236.735 462.563 227.674 465.483 226.647 466.999 228.311 470.239 228.049 471.561 226.135 480.116 225.981 481.67 229.086 483.184 224.537 481.524 220.614 485.01 217.125 481.084 216.004 483.797 211.373 483.797 202.596 488.631 199.944 492.561 199.36 496.719 196.452 498.209 188.106 503.575 187.541 503.225 184.133 502.045 182.827"></polyline>
        <polyline id="Fill-21" fill="#F8CA24" points="529.604 165.883 524.956 167.211 526.776 162.246 523.905 158.798 524.043 154.483 518.364 153.609 518.043 146.776 521.834 142.512 526.569 143.253 528.829 141.495 528.444 139.961 525.458 141.455 522.571 139.024 519.1 138.88 515.942 137.053 516.805 133.411 522.815 131.654 523.799 127.997 528.135 122.507 527.588 117.849 522.77 112.581 526.17 107.349 522.231 108.253 518.25 112.383 515.428 110.345 511.29 110.497 509.645 104.974 506.086 103.787 502.26 105.778 497.368 99.159 492.94 103.726 488.065 100.677 484.909 100.677 482.159 97.347 477.053 98.198 472.293 97.087 471.709 93.88 469.409 93.44 468.844 99.939 465.188 101.694 464.977 104.438 463.768 108 465.252 112.609 463.618 115.878 464.629 119.613 462.389 123.635 464.01 128.423 467.301 132.786 470.1 136.465 470.26 140.989 470.124 143.915 474.711 144.431 477.774 148.487 478.176 153.703 477.561 158.6 479.549 163.754 483.243 165.293 485.141 168.741 483.713 171.293 484.708 172.235 489.01 171.594 491.596 177.084 496.014 177.319 496.946 181.735 502.45 181.963 504.069 183.76 504.467 187.614 506.938 189.436 510.838 186.787 512.784 186.256 515.237 188.998 519.456 187.026 524.266 187.901 527.079 186.241 525.504 177.795 526.553 174.368 527.159 169.495 530.856 167.446 529.604 165.883"></polyline>
        <polyline id="Fill-23" fill="#F8CA24" points="68.661 183.286 68.815 178.082 64.009 173.205 61.494 174.959 58.896 173.01 58.753 166.461 55.064 168.02 51.054 164.598 49.119 159.954 45.447 157.163 41.998 157.085 38.48 153.562 34.56 152.778 31.149 147.972 26.191 147.025 24.376 142.234 20.586 138.577 17.121 138.276 16.261 136.415 14.849 136.516 13.859 141.474 7.867 146.148 6.707 154.127 5.218 156.275 1.734 156.712 0 159.915 0.329 164.526 3.775 164.743 5.977 173.313 11.234 173.75 13.377 181.037 18.172 179.078 20.859 186.02 24.957 186.02 29.088 180.743 36.859 188.737 39.88 186.58 48.009 192.293 52.226 189.409 58.799 195.762 65.021 191.043 70.946 192.102 71.696 188.787 71.837 186.307 68.661 183.286"></polyline>
        <polyline id="Fill-25" fill="#F8CA24" points="156.41 168.11 153.984 168.174 151.755 171.481 149.318 169.592 148.146 171.041 144.807 171.225 144.318 169.426 143.525 169.243 140.983 172.485 139.326 168.467 137.299 168.287 135.866 172.58 134.175 169.797 133.297 169.752 133.073 174.328 130.807 175.235 129.598 171.034 126.986 170.905 125.402 172.33 119.791 171.077 117.568 167.108 115.861 165.858 112.192 167.965 107.824 164.241 104.864 163.045 102.229 165.088 103.531 168.125 103.365 172.036 100.146 175.43 98.844 174.125 95.63 174.963 90.904 179.618 86.041 184.323 81.633 189.414 81.119 194.772 82.8 197.09 80.15 203.147 84.062 203.147 91.746 195.903 106.207 195.901 108.422 193.248 117.592 194.12 122.836 184.946 135.082 183.852 137.803 176.368 143.455 179.76 145.835 177.379 150.654 179.352 153.738 176.047 156.621 177.379 159.708 174.678 158.473 170.743 156.41 168.11"></polyline>
        <polyline id="Fill-26" fill="#F8CA24" points="80.213 195.018 80.786 189.049 85.404 183.719 90.289 178.989 95.183 174.172 99.109 173.149 100.131 174.172 102.5 171.67 102.645 168.286 101.155 164.811 104.319 162.356 103.613 158.058 98.994 154.609 93.334 154.851 91.801 151.136 89.652 149.909 88.859 148.47 85.35 148.391 83.371 144.165 86.427 142.048 86.174 141.339 82.283 141.339 82.562 138.081 83.619 135.519 82.33 130.882 81.652 126.458 77.834 123.007 73.876 122.42 71.049 123.317 70.391 127.273 69.012 131.255 69.287 133.95 72.297 135.535 70.651 138.106 66.57 137.696 62.004 138.624 56.521 138.395 52.278 139.729 49.592 138.932 46.773 143.219 44.175 145.968 44.022 151.515 42.758 156.224 45.752 156.294 49.839 159.395 51.785 164.065 55.223 167.002 59.601 165.145 59.765 172.561 61.513 173.875 64.115 172.061 69.704 177.731 69.551 182.922 72.739 185.952 72.571 188.901 71.756 192.506 79.429 202.604 81.793 197.196 80.213 195.018"></polyline>
        <polyline id="Fill-27" fill="#F8CA24" points="299.938 251.506 301.717 249.633 304.208 251.338 304.598 249.577 308.971 249.02 310.311 246.975 314.227 246.975 315.676 249.797 319.495 249.137 319.495 246.037 323.297 245.342 323.297 242.305 325.12 242.014 324.602 240.182 320.124 237.659 322.268 233.549 326.264 232.295 327.092 231.215 326.795 225.442 325.645 224.508 324.104 221.834 327.311 221.496 327.11 217.391 324.833 215.776 322.319 212.776 321.86 210.569 324.79 207.797 325.374 202.086 323.59 199.918 323.965 195.821 321.446 195 317.473 198.817 314.973 197.819 314.165 201.395 313.918 205.815 309.258 207.85 304.561 206.416 300.381 205.536 296.645 209.596 293.903 206.358 287.186 206.684 288.415 201.192 283.331 197.073 285.239 195.432 285.743 192.723 282.069 192.395 277.438 196.483 277.729 192.813 275.624 192.241 270.409 193.297 268.04 187.996 264.615 187.446 261.846 190.219 257.285 192.196 255.682 189.225 254.444 189.336 251.844 192.422 249.058 190.903 243.903 190.61 241.74 192.51 242.574 193.453 239.58 195.155 241.079 198.567 243.357 200.276 242.816 205.397 246.158 207.881 245.396 213.803 249.423 214.844 253.637 213.953 254.771 215.557 256.309 213.483 260.292 218.614 259.002 223.053 258.703 227.28 261.004 230.727 264.267 231.35 266.061 229.881 269.165 231.881 267.053 234.291 270.551 235.801 273.022 238.784 271.301 244.209 266.157 244.129 264.708 245.202 265.023 247.096 269.635 250.772 269.635 255.055 267.792 258.334 270.807 258.334 273.118 260.102 278.018 255.475 278.704 252.219 281.377 253.862 281.053 256.616 280.809 259.528 281.975 259.258 283.715 257.047 288.881 259.705 291.543 257.17 290.481 253.073 293.026 252.221 293.618 253.782 299.088 253.284 299.938 251.506"></polyline>
        <polyline id="Fill-28" fill="#F8CA24" points="268.756 251.194 264.211 247.575 263.752 244.817 265.871 243.248 270.659 243.323 272.04 238.975 270.012 236.526 265.597 234.621 267.833 232.067 266.124 230.967 264.506 232.289 260.475 231.518 257.807 227.516 258.131 222.899 259.324 218.799 256.322 214.934 254.756 217.051 253.254 214.932 249.401 215.746 244.428 214.457 245.222 208.28 241.889 205.801 242.433 200.678 240.367 199.131 238.454 194.782 241.199 193.225 239.898 191.756 234.314 191.598 232.896 188.69 229.444 189.94 226.486 188.459 223.512 189.407 223.037 193.448 217.069 193.791 215.739 191.834 213.404 193.953 209.023 193.45 206.118 190.618 203.906 190.864 203.756 194.45 199.686 196.866 202.641 201.131 205.885 197.674 209.176 201.219 209.176 205.914 210.749 209.733 208.697 214.748 206.452 219.643 211.925 222.588 215.817 230.381 218.289 226.676 221.316 228.881 220.592 231.534 219.735 237.741 221.748 240.875 219.975 244.995 224.955 248.225 229.207 247.922 231.738 253.295 230.71 259.313 231.619 261.743 230.376 263.953 235.33 268.344 233.479 271.805 226.934 269.842 223.848 266.219 220.267 271.233 215.348 267.953 215.119 265.551 207.951 272.145 206.686 268.35 206.951 263.452 202.672 264.584 199.644 267.614 198.809 275.26 203.072 278.459 199.686 282.62 200.295 287.354 193.477 289.133 192.749 295.241 187.932 297.198 184.795 301.155 186.362 305.145 185.36 309.473 178.777 308.557 175.764 309.641 177.963 312.752 179.106 317.313 185.75 320.422 192.273 321.782 193.481 314.096 196.381 316.028 197.424 319.678 207.719 312.207 215.295 312.207 220.704 315.295 221.701 321.528 223.511 318.12 222.962 312.881 219.387 310.239 221.008 308.176 218.242 305.965 218.549 299.983 220.195 294.227 223.676 296.608 223.527 302.229 225.195 303.998 225.711 301.934 225.227 298.532 229.052 297.797 228.771 294.705 232.568 292.289 234.303 294.694 236.213 291.162 238.159 294.002 242.659 287.325 245.785 284.471 242.422 279.493 236.534 277.58 234.934 274.377 235.08 272.496 237.468 268.284 242.42 269.827 245.867 276.418 248.176 280.53 251.914 275.764 251.611 271.096 255.889 269.032 256.184 262.661 261.26 261.584 265.985 258.334 266.78 258.334 268.756 254.825 268.756 251.194"></polyline>
        <polyline id="Fill-29" fill="#F8CA24" points="203.061 190.075 206.434 189.702 209.424 192.61 213.109 193.036 215.896 190.504 217.516 192.885 222.253 192.612 222.705 188.743 226.561 187.512 229.5 188.985 232.525 187.889 231.601 185.787 226.012 181.678 229.27 178.328 231.881 180.248 233.979 177.719 232.455 176.403 232.213 172.075 232.281 168.764 229.154 168.536 228.689 164.44 226.025 164.366 225.006 160.442 224.354 156.602 222.391 156.029 222.813 152.94 221.116 153.505 220.623 149.85 224.754 146.812 224.542 142.657 217.815 136.89 220.195 134.427 220.258 132.759 219.248 131.663 220.256 129.57 218.206 127.352 220.646 125.335 219.531 124.417 216.391 124.27 211.825 126.904 205.026 126.904 202.473 122.984 203.348 118.769 202.645 113.848 199.805 114.233 196.932 117.033 193.029 117.448 188.999 115.883 186.265 118.54 183.111 117.003 179.029 118.139 174.072 118.061 171.129 119.091 169.054 121.102 170.119 122.809 169.691 125.11 168.746 128.5 167.753 130.2 170.465 135.327 171.416 141.573 171.076 145.384 167.572 146.91 164.147 144.246 161.871 146.026 159.613 146.704 157.064 150.49 157.373 162.186 154.512 167.282 156.829 167.219 159.264 170.327 160.588 174.557 163.849 177.002 167.861 176.555 172.502 182.08 176.459 182.315 176.459 185.623 183.074 186.262 187.115 192.215 190.42 189.946 197.431 191.346 199.033 195.92 199.184 196.139 202.899 193.938 203.061 190.075"></polyline>
        <path d="M255.785,98.435 C255.785,100.902 253.787,102.901 251.32,102.901 C248.854,102.901 246.854,100.902 246.854,98.435 C246.854,95.97 248.854,93.97 251.32,93.97 C253.787,93.97 255.785,95.97 255.785,98.435" id="Fill-30" fill="#FFFFFE"></path>
    </g>
</svg>